<?xml version="1.0" standalone="no"?>
<!DOCTYPE svg PUBLIC "-//W3C//DTD SVG 1.1//EN" "http://www.w3.org/Graphics/SVG/1.1/DTD/svg11.dtd" >
<!--
2013-9-30: Created.
-->
<svg>
<metadata>
Created by iconfont
</metadata>
<defs>

<font id="iconfont" horiz-adv-x="1024" >
  <font-face
    font-family="iconfont"
    font-weight="500"
    font-stretch="normal"
    units-per-em="1024"
    ascent="896"
    descent="-128"
  />
    <missing-glyph />
    
    <glyph glyph-name="tuihuanhuo" unicode="&#58920;" d="M439.086545 158.58036374999995L89.48363656 332.77672687999996l62.44072688 164.98036406 349.55636344-164.98036407L439.086545 158.58036374999995 439.086545 158.58036374999995zM568.62254563 160.09309125000004l-59.29890938 172.68363656 351.13890938 164.98036407 70.23709125-163.39781813L568.62254563 160.09309125000004 568.62254563 160.09309125000004zM152.18036375 498.33890906L32 637.0909087499999 387.81672688 817.45454531l113.94327281-143.38327312L152.18036375 498.33890906 152.18036375 498.33890906zM860.46254562 498.33890906L507.74109125 674.07127313 626.33890906 817.45454531l348.04363594-183.45890906L860.46254562 498.33890906 860.46254562 498.33890906zM130.04799969 121.97236406000002l1.18690875 167.28436406 314.8567275-157.30036406 52.66618219 135.70327313 0-314.53090875L130.04799969 121.97236406000002 130.04799969 121.97236406000002zM511.65090875-46.87127250000003L511.65090875 267.65963624999995l48.82618219-136.02909094 318.6967275 156.46254563 0-166.12072688L511.65090875-46.87127250000003 511.65090875-46.87127250000003z"  horiz-adv-x="1024" />

    
    <glyph glyph-name="youxiang" unicode="&#58935;" d="M916.347676 39.51624800000002L103.876324 39.51624800000002c-22.471804 0-40.767496 18.287505-40.767496 40.768519L63.108828 696.938292c0 22.473851 18.295692 40.754193 40.767496 40.754193l812.471352 0c22.473851 0 40.76954201-18.28034199 40.76954201-40.754193l0-616.653525C957.116195 57.80375300000003 938.820504 39.51624800000002 916.347676 39.51624800000002zM103.876324 709.352019c-6.848988 0-12.42703001-5.570879-12.42703001-12.413727l2e-8-616.653525c0-6.850012 5.577019-12.42805399 12.42702999-12.428054l812.471352 0c6.848988 0 12.429077 5.577019 12.429077 12.428054L928.776753 696.938292c0 6.842849-5.579065 12.413727-12.429077 12.413727L103.876324 709.352019zM510.125815 313.29465799L68.547701 659.102568 86.011444 681.410644 510.125815 349.28945401 934.212556 681.410644 951.67834599 659.102568ZM95.517959 51.113377000000014L75.481623 71.15278199 364.488877 360.186641 384.526235 340.14825900000005ZM663.093172 361.066415l289.897187-289.897187-20.038819-20.038819-289.897187 289.897187 20.038819 20.038819Z"  horiz-adv-x="1024" />

    
    <glyph glyph-name="shijian" unicode="&#58894;" d="M511.97-46.77999999999997c-237.157 0-429.346 192.188-429.346 429.285 0 237.127 192.188 429.376 429.346 429.376 237.097 0 429.346-192.248 429.346-429.376 0-237.097-192.218-429.285-429.346-429.285l0 0 0 0zM511.97 763.239c-210.218 0-380.674-170.456-380.674-380.704 0-210.188 170.456-380.674 380.674-380.674 210.248 0 380.674 170.486 380.674 380.674 0 210.248-170.426 380.704-380.674 380.704l0 0 0 0zM309.578 248.16899999999998c-5.93 12.702-0.512 27.812 12.16 33.742l187.613 62.698 0 264.729c0 14.087 11.318 25.404 25.344 25.404 13.966 0 25.374-11.378 25.374-25.404l0-278.665c0-0.993-0.542-1.896-0.632-2.89 0.602-9.993-4.816-19.806-14.448-24.351l-201.76-67.424c-12.642-6.02-27.782-0.482-33.652 12.16l0 0 0 0zM309.578 248.16899999999998z"  horiz-adv-x="1024" />

    
    <glyph glyph-name="tongzhi" unicode="&#58950;" d="M512-42.66666699999996C558.933333-42.66666699999996 597.333333-4.266666999999984 597.333333 42.66666699999996L426.666667 42.66666699999996C426.666667-4.266666999999984 465.066667-42.66666699999996 512-42.66666699999996ZM789.333333 213.33333300000004L789.333333 448C789.333333 578.986667 698.453333 688.64 576 717.653333L576 746.666667C576 782.08 547.413333 810.666667 512 810.666667 476.586667 810.666667 448 782.08 448 746.666667L448 717.653333C325.546667 688.64 234.666667 578.986667 234.666667 448L234.666667 213.33333300000004 149.333333 128 149.333333 85.33333300000004 874.666667 85.33333300000004 874.666667 128 789.333333 213.33333300000004Z"  horiz-adv-x="1024" />

    
    <glyph glyph-name="yingxiao1" unicode="&#59090;" d="M710.77078145 767.02817872L710.77078145 767.02817872c7.63505771 0 21.74062324-1.23046875 30.73622782-9.48515538 2.05048828-1.85976562 8.27490146-7.57001865 8.27490148-21.64570137 0-15.82558418-8.72050693-40.73114795-33.18134414-63.17138056-29.95575908-27.46581768-79.34676943-48.21591357-114.88358234-48.21591358-10.27529209 0-15.10048652 1.85976562-15.91083808 1.85976563-0.06503906 0-0.10986328-0.02460937-0.10986328-0.02460938-6.58037021 13.17568271 7.81523349 70.3872 49.20116748 108.37791915C656.93426328 754.94761318 685.30974893 767.02817872 710.77078145 767.02817872M710.77078145 833.9999499c-41.02118701 0-86.2576084-17.27577949-122.26815176-50.26640097-61.8820251-56.83183067-97.98749033-161.54910528-49.83134238-205.71589776 15.48544747-14.24531074 37.82109023-20.44599434 63.04657587-20.44599434 53.19140097 0 119.24295732 27.63105205 161.27488653 66.14647823 61.85653682 56.77118614 73.04677031 138.66414697 24.87568095 182.83533398C767.71686992 825.03422813 740.33630615 834.02455928 710.77078145 833.9999499L710.77078145 833.9999499 710.77078145 833.9999499zM363.16075713 767.02817872c25.46103252 0 53.84618614-12.08056552 75.92167266-32.30595353 41.69618701-38.27109023 55.96698691-96.0275294 50.19169394-107.45330977-0.06503906-0.02460937-4.49472656-2.75976563-17.03056465-2.75976562-35.55087539 0-84.88739443 20.74570137-114.81326982 48.21591358-24.49072002 22.44023262-33.20595352 47.37128467-33.20595352 63.16698603 0 14.08007637 6.19013584 19.79033028 8.24501866 21.65097481C341.49571982 765.79770997 355.58106963 767.02817872 363.16075713 767.02817872M363.16075713 833.9999499c-29.5505833 0-56.89686973-8.97011631-77.08182802-27.44560283-48.11132373-44.17118701-36.92636367-126.06326894 24.96093485-182.83972852 41.9765581-38.51103164 108.02811445-66.14647823 161.20457403-66.14647822 25.24042705 0 47.57167529 6.20507724 63.06679073 20.44599434 48.18163623 44.17118701 12.04540927 148.88934052-49.83661583 205.71589775C449.46318974 816.7241704099999 404.21182695 833.9999499 363.16075713 833.9999499L363.16075713 833.9999499 363.16075713 833.9999499zM887.00992402 524.74099541c0 36.11073867-13.35058506 59.27694698-50.00097129 59.27694698L537.00048565 584.0179423899999l0-300.0084671 350.00943838 0L887.00992402 524.74099541zM537.00048565 234.00850401000002L537.00048565-65.99996221000004l300.00846708 0c36.65126602 0 50.00097129 13.87001777 50.0009713 50.00097129L887.00992402 234.00850401000002 537.00048565 234.00850401000002zM486.99951435 284.00947616999997L486.99951435 584.0179423899999l-283.34792197 6.35009677c-36.6908168 0-66.66151729-29.51542705-66.66151728-65.62704463l0-240.73151924L486.99951435 284.00947616999997zM136.99007598 229.37315332000003l-1e-8-229.71618809c0-36.13622695 29.97070049-65.65692744 66.66151729-65.65692744l283.34792197 0L486.99951435 234.00850401000002 136.99007598 229.37315332000003 136.99007598 229.37315332000003z"  horiz-adv-x="1024" />

    
    <glyph glyph-name="miaosha" unicode="&#59178;" d="M985.1344 345.1344C985.1344 83.84 773.3104-128 512.0304-128S38.8656 83.84 38.8656 345.1344c0 261.3104 211.8848 473.1344 473.1648 473.1344S985.1344 606.4448 985.1344 345.1344zM512.0304 772.4112c-235.9904 0-427.3328-191.2864-427.3328-427.2752 0-235.9744 191.344-427.272 427.3328-427.272 235.9872 0 427.272 191.2976 427.272 427.272C939.3024 581.1248 748.0176 772.4112 512.0304 772.4112zM567.48 345.1344c0-30.6336-24.8768-55.464-55.4496-55.464-30.6336 0-55.5104 24.8304-55.5104 55.464 0 30.6336 24.8768 55.464 55.5104 55.464C542.6032 400.6 567.48 375.768 567.48 345.1344zM491.8448 671.2016l40.312 0 0-466.7392-40.312 0 0 466.7392ZM482.2272 896l59.5472 0 0-98.8048-59.5472 0 0 98.8048ZM910.3904 706.1824 851.32 654.1776 824.7808 684.336 883.792 736.3424ZM930.6368 652.9888 829.7088 758.2336 870.376 797.1952 971.2432 691.9504Z"  horiz-adv-x="1024" />

    
    <glyph glyph-name="fenxiao" unicode="&#58938;" d="M701.75802781 189.55224843999997c25.85476312-3.51406781 55.5429075-5.50736156 87.12113344-5.50736157 100.03561406 0 181.12525969 20.02324969 181.12525969 44.70880688l0 44.70396937c0 2.41904625-0.81602438 4.79938687-2.30938219 7.10877-13.80952687-21.30050625-88.59675187-37.59519937-178.81587656-37.59519937-31.61854313 0-61.25508187 2.03683688-87.12113344 5.55896719l0-39.415935L701.75802781 189.55224843999997zM788.87916219 261.26244655999994c100.03238812 0 181.12364719 20.02002469 181.12364719 44.70719438l-1e-8 44.71525781c0 2.06425219-0.63056438 4.09786406-1.73042437 6.08793187-12.04846125-21.80366719-87.73879687-38.60797313-179.39483531-38.60797312-31.61854313 0-61.25508187 2.04167438-87.12113344 5.55251719l0-56.94918C727.61279094 263.26541625000004 757.30093625 261.26244655999994 788.87916219 261.26244655999994M788.87916219 337.13340374999996c100.03238812 0 181.12364719 20.01196125 181.12364719 44.70719438l-1e-8 44.70396937c0 1.83202406-0.49993594 3.63663281-1.37563125 5.41705031-10.8470025-22.1326575-87.15177469-39.28530656-179.74962843-39.28530656-31.61854313 0-61.25508187 2.03683688-87.12113344 5.55574219l0-55.59290157C727.61279094 339.12831000000006 757.30093625 337.13340374999996 788.87916219 337.13340374999996M788.87916219 410.95462313c100.03238812 0 181.12364719 20.02324969 181.12364719 44.71525781l-1e-8 44.70880687c0 0.6773325-0.08708531 1.35305344-0.21448875 2.0255475-4.30912688-23.73890437-83.64093281-42.6703575-180.91077093-42.6703575-31.61854313 0-61.26637031 2.0255475-87.12113344 5.53638938l0-48.796995C727.61279094 412.96404375 757.30093625 410.95462313 788.87916219 410.95462313M788.87916219 530.8554421900001c-94.93787719 0-172.75536094 18.03318094-180.44631375 40.97863875-0.41123813-1.22081156-0.66926906-2.47226531-0.66926906-3.71887969l0-25.15323937c56.01542812-7.6006425 93.99606188-22.30682906 93.99606187-39.20144625l0-18.95886938 0-0.59992312c25.85476312-3.50277844 55.5429075-5.50736156 87.12113344-5.50736157 100.03238812 0 181.12364719 20.02324969 181.12364719 44.70880688l0 44.71203281c0 1.24661531-0.26448281 2.49806813-0.6773325 3.71887969C961.64742406 548.89023563 883.82832875 530.8554421900001 788.87916219 530.8554421900001M788.87916219 606.04745344c-91.65442594 0-167.34959906 16.80753094-179.39483531 38.60797312-1.09986-1.98523031-1.72074844-4.02206719-1.72074844-6.09599625l0-44.70880687c0-24.68071969 81.08319469-44.70719438 181.11558375-44.70719438s181.12364719 20.02486219 181.12364718 44.70719438l0 44.70880687c0 2.07392906-0.63056438 4.1091525-1.73042437 6.09599625C956.22553531 622.8549853100001 880.53520063 606.04745344 788.87916219 606.04745344M788.87916219 759.13435781c-100.03238812 0-181.11558375-20.02324969-181.11558375-44.70719437l0-44.70396938c0-24.69523406 81.08319469-44.70880688 181.11558375-44.70880687s181.12364719 20.01357375 181.12364719 44.70880687l-1e-8 44.70396938C970.00442187 739.11272063 888.91155031 759.13435781 788.87916219 759.13435781M435.44848438 100.01206875000003c19.5523425-1.7804175 40.68351469-2.76255094 62.74360125-2.76255094 100.03238812 0 181.11397031 20.02324969 181.11397031 44.71525782l0 44.70719437c0 2.41904625-0.80473594 4.78809844-2.30938219 7.10877-13.79823844-21.31179469-88.58385-37.59519937-178.80458813-37.59519937-22.06492406 0-43.18964625 0.98535844-62.74360125 2.77383937l0-14.81907562L435.44848438 100.01206875000003zM435.44848438 205.85823000000005l0-27.66582187 0-0.95632969c19.5523425-1.78686844 40.68351469-2.759325 62.74360125-2.759325 100.03238812 0 181.11397031 20.02324969 181.11397031 44.70396937l0 44.70880688c0 2.07392906-0.61927594 4.09786406-1.719135 6.09599625-12.04846125-21.80366719-87.75008531-38.61119906-179.39483532-38.61119907-22.07621344 0-43.18158281 0.99342188-62.74360125 2.77706438l0-9.14721938L435.44848438 205.85823000000005zM435.44848438 284.58850031l0-26.95623562 0-4.54296844c19.5523425-1.76912906 40.68351469-2.75126156 62.74360125-2.75126156 100.03238812 0 181.11397031 20.02002469 181.11397031 44.70719437l0 44.71203282c0 1.83202406-0.49026 3.63985781-1.36756688 5.41705031-10.84377656-22.1326575-87.15983813-39.2949825-179.74640344-39.2949825-22.36327313 0-43.75247813 1.02406312-63.52898531 2.85286125 0.4918725-1.41433594 0.78538312-2.84318531 0.78538313-4.28654906L435.44848438 284.58850031zM498.19369812 372.93850875c-97.26983812 0-176.60486906 18.9395175-180.91883437 42.68164687-0.11772656-0.68055844-0.20481281-1.3498275-0.20481281-2.04006187l0-44.70396937c0-8.81822906 10.38254531-17.02363312 28.24155562-23.95500563 23.67117094-3.56083594 43.96696687-8.4585975 59.24888625-14.32075219 27.33038156-4.07851125 59.36983875-6.42982406 93.63320532-6.42982406 100.03238812 0 181.11397031 20.02324969 181.11397031 44.70719438l0 44.70396937c0 0.68862188-0.08708531 1.35789094-0.20481282 2.04006188C674.79372969 391.87802625 595.46353625 372.93850875 498.19369812 372.93850875M498.19369812 526.0254131300001c-100.03238812 0-181.12525969-20.01196125-181.12525968-44.70719438l0-44.70396938c0-24.68394469 81.09287156-44.70719438 181.12525969-44.70719437s181.11397031 20.02324969 181.11397031 44.70719437l0 44.70396938C679.30605594 506.01506531 598.22447375 526.0254131300001 498.19369812 526.0254131300001M231.89383062 100.54425844000002c-90.22557562 0-165.00634969 16.28179219-178.81265156 37.59197437-1.50464625-2.32067156-2.31260812-4.68972375-2.31260812-7.10877l0-44.70719437c0-24.69200813 81.09287156-44.71525781 181.12525968-44.71525782 100.02432469 0 181.11558375 20.02324969 181.11558375 44.71525782L413.00941438 131.02907531000005c0 2.41904625-0.80796094 4.78809844-2.31260813 7.10877C396.89050438 116.82605062000005 322.11134375 100.54425844000002 231.89383062 100.54425844000002M231.89383062 175.73465719c-91.65442594 0-167.3576625 16.80753094-179.40289875 38.60797312-1.103085-1.99490625-1.72074844-4.02045469-1.72074843-6.09599625l0-44.70719437c0-24.68071969 81.09287156-44.70719438 181.12525968-44.70719438 100.02432469 0 181.11558375 20.02486219 181.11558375 44.70719438l0 44.70719437c0 2.07554156-0.61927594 4.10108906-1.72236093 6.09599625C399.23052875 192.54218906000006 323.54019313 175.73465719 231.89383062 175.73465719M50.76857094 239.40233437999996c0-24.68394469 81.09287156-44.70719438 181.12525968-44.70719438 100.02432469 0 181.11558375 20.02324969 181.11558375 44.70719437l0 44.71525782c0 24.68071969-81.09287156 44.70396937-181.11558375 44.70396937-100.03238812 0-181.12525969-20.02324969-181.12525968-44.70396937L50.76857094 239.40233437999996z"  horiz-adv-x="1024" />

    
    <glyph glyph-name="m-members" unicode="&#59064;" d="M274.819-44.777h497.3l70.753 147.94-645.239-0 77.187-147.94zM743.856 0.051h-441.862l-30.407 58.277h500.133l-27.864-58.277zM767.078 599.836l-131.652-234.121-130.020 332.777-126.128-330.752-121.998 231.822-29.315-281.384-169.591 115.263 127.34-293.86h668.342l116.247 301.221-165.956-126.066-37.268 285.099zM823.307 184.405h-608.165l-54.221 125.116 103.868-70.588 21.754 208.765 99.271-188.649 120.098 314.954 122.209-312.758 111.969 199.134 29.821-228.107 101.666 77.232-48.27-125.099zM28.080 503.353c0-10.951 4.511-21.845 12.26-29.588 7.743-7.748 18.631-12.26 29.588-12.26 10.957 0 21.845 4.511 29.594 12.26 7.748 7.743 12.248 18.631 12.248 29.588 0 10.957-4.506 21.84-12.248 29.588s-18.637 12.26-29.594 12.26c-10.951 0-21.845-4.511-29.588-12.26-7.748-7.748-12.26-18.631-12.26-29.588v0 0zM464.788 763.136c0-10.962 4.506-21.845 12.254-29.594 7.748-7.743 18.637-12.248 29.594-12.248s21.845 4.506 29.594 12.248c7.737 7.748 12.248 18.642 12.248 29.594s-4.511 21.845-12.248 29.588c-7.748 7.748-18.637 12.254-29.588 12.254s-21.845-4.506-29.594-12.26c-7.748-7.743-12.26-18.631-12.26-29.582v0 0zM914.301 503.353c0-10.951 4.511-21.845 12.248-29.588 7.748-7.748 18.637-12.26 29.594-12.26s21.84 4.511 29.594 12.26c7.737 7.743 12.248 18.631 12.248 29.588 0 10.957-4.511 21.84-12.248 29.588-7.754 7.748-18.637 12.26-29.594 12.26s-21.845-4.511-29.594-12.26c-7.737-7.748-12.248-18.631-12.248-29.588v0 0zM914.301 503.353z"  horiz-adv-x="1024" />

    
    <glyph glyph-name="weixin-copy" unicode="&#58880;" d="M684.111 531.9103333400001c10.475 0 20.95-0.722 31.424-1.806-28.174 131.477-168.68 229-329.053 229-179.155 0-326.163-122.085-326.163-277.401 0-89.577 48.762-163.262 130.393-220.332l-32.508-98.246 114.139 57.431c40.816-7.946 73.685-16.254 114.139-16.254 10.114 0 20.227 0.361 30.341 1.445-6.502 21.672-10.114 44.789-10.114 68.267 0 142.313 122.447 257.896 277.401 257.896zM508.569 620.40433334c24.562 0 40.816-16.254 40.816-40.816s-16.254-40.816-40.816-40.816c-24.562 0-49.123 16.254-49.123 40.816 0.361 24.562 24.923 40.816 49.123 40.816zM280.291 538.77333334c-24.562 0-49.123 16.254-49.123 40.816s24.562 40.816 49.123 40.816c24.562 0 40.816-16.254 40.816-40.816 0-24.2-16.254-40.816-40.816-40.816zM981.74 277.62633334c0 130.393-130.393 236.586-277.04 236.586-155.316 0-277.401-106.193-277.401-236.586 0-130.754 122.085-236.586 277.401-236.586 32.508 0 65.377 8.308 97.885 16.254l89.577-49.123-24.562 81.631c65.377 49.123 114.139 114.5 114.139 187.824zM614.761 318.44233334c-16.254 0-32.508 16.254-32.508 32.508 0 16.254 16.254 32.508 32.508 32.508 24.562 0 40.816-16.254 40.816-32.508 0-16.254-16.254-32.508-40.816-32.508zM794.277 318.44233334c-16.254 0-32.508 16.254-32.508 32.508 0 16.254 16.254 32.508 32.508 32.508 24.562 0 40.816-16.254 40.816-32.508 0-16.254-16.615-32.508-40.816-32.508z"  horiz-adv-x="1024" />

    
    <glyph glyph-name="yue" unicode="&#58953;" d="M191.178125 664.209375l454.865625 0c33.778125 0 61.228125 27.45 61.228125 61.3125l0 47.165625c0 34.03125-27.421875 61.3125-61.228125 61.3125l-454.865625 0c-33.778125 0-61.25625-27.45-61.25625-61.3125l0-47.19375c0-34.03125 27.45-61.284375 61.25625-61.284375zM568.053125 443.45625c20.671875 24.159375 44.6625 45.365625 71.325 62.94375l0 45.534375c0 34.03125-27.421875 61.3125-61.228125 61.3125l-454.89375 0c-33.75 0-61.228125-27.45-61.228125-61.3125l0-47.19375c0-34.03125 27.421875-61.3125 61.228125-61.3125l444.825 0.028125zM129.921875 331.18125l0-47.19375c0-34.03125 27.421875-61.3125 61.228125-61.3125l295.340625 0c0 61.875 16.5375 119.840625 45.45 169.790625l-340.7625 0c-33.778125 0.028125-61.25625-27.421875-61.25625-61.284375zM157.203125 171.74062500000002c-33.778125 0-61.228125-27.45-61.228125-61.3125l0-47.19375c0-34.03125 27.421875-61.3125 61.228125-61.3125l410.85 0c-40.3875 47.19375-68.0625 105.525-77.7375 169.81875l-333.1125 0zM826.15625 511.35c-159.4125 0-288.675-129.2625-288.675-288.703125 0-159.4125 129.2625-288.646875 288.675-288.646875 159.46875 0 288.703125 129.234375 288.703125 288.646875-0.028125 159.440625-129.2625 288.703125-288.703125 288.703125zM941.3 175.34062500000005c12.54375 0 22.696875-9.5625 22.696875-21.375s-10.153125-21.375-22.696875-21.375l-81.50625 0 0-46.40625c0-15.778125-13.584375-28.575-30.31875-28.575s-30.31875 12.796875-30.31875 28.575l0 46.40625-81.50625 0c-12.54375 0-22.696875 9.5625-22.696875 21.375s10.153125 21.375 22.696875 21.375l81.50625 0 0 30.88125-81.50625 0c-12.54375 0-22.696875 9.5625-22.696875 21.375s10.153125 21.375 22.696875 21.375l81.50625 0 0 24.01875-82.0125 78.609375c-10.2375 9.815625-10.096875 25.565625 0.3375 35.184375s27.140625 9.50625 37.378125-0.309375l74.64375-71.521875 74.64375 71.521875c10.2375 9.815625 26.94375 9.928125 37.378125 0.309375 10.40625-9.61875 10.546875-25.396875 0.3375-35.184375l-82.0125-78.609375 0-24.01875 81.50625 0c12.54375 0 22.696875-9.5625 22.696875-21.375s-10.153125-21.375-22.696875-21.375l-81.50625 0 0-30.88125c0 0 81.421875 0 81.421875 0z"  horiz-adv-x="1198" />

    
    <glyph glyph-name="cy3" unicode="&#59543;" d="M812.813648 809.90618 210.165092 809.90618c-80.807421 0-146.541541-65.450664-146.541541-145.892765l0-387.740952c0-80.45131 65.73412-145.892765 146.541541-145.892765l20.348444 0c-5.486968-61.402465-33.553187-110.087281-43.054585-125.005039-7.293103-11.464099-6.252401-26.108634 2.596128-36.436864 6.040576-7.039323 14.631232-10.842952 23.470551-10.842952 4.124947 0 8.295943 0.843204 12.292977 2.541893 114.617457 49.089022 172.746366 133.497457 193.417151 169.742962l393.57789 0c80.806397 0 146.540518 65.441455 146.540518 145.892765L959.354166 664.013415C959.354166 744.455515 893.620046 809.90618 812.813648 809.90618zM321.643046 585.39894l182.424796 0c16.012695 0 28.996404-12.925381 28.996404-28.867468 0-15.943111-12.983709-28.859281-28.996404-28.859281l-182.424796 0c-16.012695 0-28.995381 12.916171-28.995381 28.859281C292.647665 572.473559 305.630351 585.39894 321.643046 585.39894zM686.491615 355.150952 321.643046 355.150952c-16.012695 0-28.995381 12.917194-28.995381 28.851095 0 15.941064 12.982686 28.866445 28.995381 28.866445l364.848569 0c16.011672 0 28.985148-12.925381 28.985148-28.866445C715.477786 368.067122 702.50431 355.150952 686.491615 355.150952z"  horiz-adv-x="1024" />

    
    <glyph glyph-name="kefu002" unicode="&#59022;" d="M901.802667 460.629333c-22.357333 43.349333-47.616 92.501333-64.853333 137.898667-45.568 121.173333-123.904 245.248-360.448 245.248C230.570667 843.776 73.386667 630.1013330000001 73.386667 482.986667c0-131.242667 58.538667-227.669333 97.109333-291.498667 16.896-27.989333 30.208-50.005333 30.037333-61.781333l0-185.002667c0-10.752 13.824-20.48 27.818667-20.48 16.213333 0 29.866667 6.826667 29.866667 20.309333L258.218667 129.70666700000004c0 22.528-17.92 56.149333-40.96 98.816-36.181333 67.584-85.845333 159.914667-86.186667 254.464C130.218667 641.5360000000001 302.592 773.6320000000001 454.826667 785.066667l0-254.122667c-64.853333-11.434667-112.981333-73.216-112.981333-146.944 0-77.653333 59.392-136.021333 138.24-136.021333 28.672 0 56.149333 8.533333 79.872 24.746667l60.928-43.178667c-1.706667-28.16 22.186667-52.053333 50.005333-52.053333 27.648 0 50.176 22.528 50.176 50.005333 0 33.792-32.768 57.344-64.512 47.786667L600.746667 314.709333c14.165333 22.528 21.504 48.128 21.504 74.752 0 64.682667-45.568 122.026667-109.226667 138.752L513.024 784.213333c136.704-10.24 229.034667-80.896 267.434667-204.8 10.581333-34.645333 45.056-96.426667 72.704-146.090667 18.090667-32.597333 38.570667-69.461333 39.936-77.141333-4.266667-9.216-51.882667-32.938667-94.037333-49.834667l-4.949333-1.877333 0-118.272c0-1.024-0.682667-25.258667-26.112-51.2-23.722667-24.405333-78.848-25.941333-79.36-25.941333l-64.170667 0 0-164.352 0.512-1.365333c2.730667-6.997333 11.434667-18.944 26.624-18.944 21.333333 0 29.184 13.312 30.549333 20.48l0.170667 106.325333c18.773333-0.512 65.194667 1.877333 109.397333 29.866667 60.757333 38.570667 60.245333 102.741333 60.074667 105.472l0 79.189333c21.845333 7.68 94.208 35.84 98.816 75.264C952.661333 360.448 934.4 397.312 901.802667 460.629333L901.802667 460.629333zM564.224 389.290667c0-46.421333-37.888-83.968-84.138667-83.968-46.421333 0-84.309333 37.717333-84.309333 83.968 0 46.250667 37.717333 83.968 84.138667 83.968C526.336 473.088 564.224 435.541333 564.224 389.290667z"  horiz-adv-x="1024" />

    
    <glyph glyph-name="huojian" unicode="&#58922;" d="M826.01967477 650.70322422c0 13.2560719-4.63962516 24.52373301-13.9188755 33.80298335-9.27925033 9.27925033-20.54691145 13.9188755-33.80298334 13.9188755-13.2560719 0-24.52373301-4.63962516-33.80298335-13.9188755-9.27925033-9.27925033-13.9188755-20.54691145-13.91887549-33.80298335 0-13.2560719 4.63962516-24.52373301 13.91887549-33.80298335 9.27925033-9.27925033 20.54691145-13.9188755 33.80298335-13.91887549 13.2560719 0 24.52373301 4.63962516 33.80298334 13.91887549C821.3800496 626.3120519199999 826.01967477 637.44715232 826.01967477 650.70322422L826.01967477 650.70322422 826.01967477 650.70322422zM937.23811803 793.73624003c0-82.45276723-12.46070759-153.63787333-37.51468349-213.82043977-25.05397589-60.05000571-66.9431631-119.70232927-125.93268307-178.95697066-26.77726525-26.51214381-59.12208067-55.67550198-96.76932488-87.35751382l-9.94205392-188.23622101c-0.66280359-5.30242877-3.31401797-9.54437177-7.95364314-12.85838974l-190.62231395-111.21844325c-2.25353221-1.3256072-4.90474661-1.98841078-7.95364312-1.98841079-3.97682157 0-7.82108242 1.45816791-11.40022185 4.50706445l-31.81457257 31.81457257c-4.24194301 4.63962516-5.5675502 9.94205392-3.97682156 15.90728628l42.15430864 137.06778346L316.05858873 328.05043415l-137.06778345-42.15430866c-1.06048575-0.26512144-2.51865366-0.53024288-4.50706446-0.53024286-4.63962516 0-8.48388603 1.45816791-11.40022184 4.50706444l-31.81457255 31.81457255c-5.5675502 6.23035379-6.49547523 12.72582902-2.51865367 19.353865l111.21844326 190.62231393c3.31401797 4.63962516 7.55596098 7.29083955 12.85838974 7.95364313l188.23622099 9.94205393c31.81457257 37.77980492 60.84537003 69.99205964 87.35751384 96.76932489 62.17097723 61.90585578 121.42561861 104.59040731 177.76392419 128.05365456 56.20574486 23.46324726 127.65597241 35.26115125 213.95300049 35.26115125 4.63962516 0 8.61644674-1.59072863 11.93046469-4.77218589C935.51482867 801.82244389 937.23811803 798.11074376 937.23811803 793.73624003L937.23811803 793.73624003 937.23811803 793.73624003zM937.23811803 793.73624003M221.67535678 96.46685803000003L349.33132918 270.65164282 327.85649271 292.1264793 83.0168447-42.19165406000002 417.33497804 202.64799397000002 395.86014157 224.12283045000004Z"  horiz-adv-x="1024" />

    
    <glyph glyph-name="huiyuan1" unicode="&#58964;" d="M63.904067 552.892975l2.865194 8.083941c7.367643 22.0006 26.605376 36.735885 50.038573 38.373139 21.386629 1.534926 42.773259-10.949136 52.801439-30.596183 10.232837-20.056361 7.367643-43.694214-7.469971-61.294694-1.739582-1.944239-3.479165-3.888478-5.423404-6.139702 41.44299-25.377436 82.681323-50.447886 123.715-75.722994 15.553912-9.618867 31.210153-19.237734 46.764065-28.549615 8.902568-5.218747 15.758569-3.683821 20.568002 5.01409 47.173379 85.955831 94.346757 172.01399 141.929449 258.890776-20.568002 10.437494-33.870691 26.400719-35.098631 50.038573-0.818627 16.577196 5.01409 30.800839 16.781853 42.363945 23.330868 22.716898 61.601679 20.568002 82.067353-4.604777 23.535525-28.8566 15.04227-62.624963-22.307585-88.002398 12.177076-22.307585 24.45648-44.717498 36.838213-67.025082 34.280004-62.420306 68.355351-124.635955 102.635355-187.056261 7.879285-14.4283 12.893375-15.758569 27.01469-7.367643 53.006096 32.335765 105.909863 64.876187 158.915959 97.31428 2.455881 1.534926 4.809433 3.069851 7.674628 4.809433-10.949136 10.949136-17.907465 23.330868-18.726092 38.577796-1.534926 28.549615 18.112122 53.517738 45.638453 58.224843 28.651944 5.01409 55.25732-11.358449 63.750575-39.089437 0.61397-2.148896 1.534926-4.40012 2.353553-6.549016l0-19.237734c-9.004897-28.8566-27.526332-45.638453-59.350455-45.84311-1.125612-3.274508-2.353553-6.549016-3.274508-9.823524-31.005496-106.319177-62.010992-212.84301-93.016488-319.162186-3.990806-13.916658-8.902568-17.498151-22.921555-17.498151L243.183372 141.02128500000003c-15.04227 0-19.647047 3.479165-23.740182 17.498151-25.275107 86.262816-50.24323 172.832617-75.518337 259.095433-6.753672 23.330868-13.712002 46.661737-20.568002 70.094934-23.740182 0-41.647647 9.41421-52.801439 29.879884-2.660538 5.01409-4.40012 10.64215-6.549016 15.963226C63.904067 540.204257 63.904067 546.548616 63.904067 552.892975L63.904067 552.892975 63.904067 552.892975zM63.904067 552.892975M510.362746 85.35465199999999l250.192865 0c22.307585 0 40.112721-15.758569 42.568602-36.940542 2.455881-21.386629-11.563106-40.82902-33.154392-45.638453-3.069851-0.818627-6.344359-0.920955-9.41421-0.920955L259.965224 1.8547019999999748c-19.033077 0-35.098631 11.358449-40.624363 28.549615-5.730389 17.191166-0.409313 36.633557 14.837614 46.45708 7.879285 5.01409 18.316778 8.493255 27.526332 8.493255C344.693115 85.76396499999998 427.579095 85.35465199999999 510.362746 85.35465199999999L510.362746 85.35465199999999 510.362746 85.35465199999999 510.362746 85.35465199999999zM510.362746 85.35465199999999"  horiz-adv-x="1024" />

    
    <glyph glyph-name="tubiao09" unicode="&#58945;" d="M963.47022222 696.6853632c0 7.81771662-7.47401671 14.13247431-16.66653297 14.13247431L77.19048533 710.81783751c-9.20416711 0-16.66070755-6.31475769-16.66070755-14.13247431l0-43.31783965c0-2.06219947 0.54758969-4.00206507 1.47965724-5.76134257 1.75927751-4.6661632 6.27397973-8.44686222 12.32659343-9.53039076 15.16939947-2.76125013 28.19504355-10.03720249 37.32348017-19.91129315 1.70684871-2.20783502 3.43699911-4.41567005 5.32443591-6.67593387 5.47589689-8.12063858 8.5983232-17.44713955 8.5983232-27.23967431 0-25.80079502-21.55406222-48.43256035-51.24623928-53.80942507-8.69735538-1.57868942-14.28976071-8.650752-12.90913565-16.01408569-0.14563555-0.75147947-0.27379485-1.50878435-0.27379485-2.29521635l0-58.38820693c0-0.49516089 0.11650845-0.95536925 0.16893725-1.4388793-0.85633707-7.077888 4.61955982-13.70721849 13.00816782-15.22182826 29.69217707-5.38269013 51.24623929-28.03193173 51.24623929-53.82690134 0-25.78914418-21.55406222-48.42673493-51.24623929-53.80942506-8.03908267-1.45635555-13.43924907-7.60800142-13.13050169-14.33636409-0.00582542-0.14563555-0.0524288-0.28544569-0.0524288-0.43690667l0-64.05634275c0-0.11068302 0.03495253-0.2097152 0.03495254-0.32039823-0.22136605-6.68175929 5.16132409-12.75767467 13.14215253-14.20237937 29.69217707-5.38269013 51.24623929-28.02028089 51.24623929-53.81525049s-21.55406222-48.42673493-51.24623929-53.82690134c-8.0216064-1.45635555-13.4217728-7.58469973-13.13632711-14.2897607-0.29709653-1.05440142-0.49516089-2.14375538-0.49516089-3.2738873l0-38.10991217c-0.05825422-0.48351005-0.17476267-0.96119467-0.17476267-1.45635556 0-7.78858951 7.46236587-14.12082347 16.66070756-14.12082347l869.60737849 0c9.19834169 0 16.66653298 6.33223395 16.66653297 14.12082347l0 43.96446151c0 0.524288-0.11650845 1.01944889-0.18058808 1.53208605-0.0524288 0.37282702-0.04660338 0.76895573-0.13398472 1.13595733-0.18058809 0.80390827-0.4718592 1.572864-0.80390826 2.31269262-0.03495253 0.08738133-0.0524288 0.17476267-0.09320676 0.25631858-2.09132658 4.42149547-6.72253725 7.71868445-12.3731968 8.61579947-29.48246187 5.51667485-50.85011058 28.04358258-50.85011058 53.72204373 0 25.7949696 21.55988765 48.4442112 51.25206472 53.82690134 7.98665387 1.44470471 13.36351858 7.50896925 13.14797795 14.1849031 0 0.11650845 0.04077795 0.22136605 0.04077796 0.3378745l0 64.06216817c0 0.15146098-0.04660338 0.30292195-0.0524288 0.45438293 0.29127111 6.72253725-5.09724445 12.86253227-13.13050169 14.32471325-29.69800249 5.37686471-51.25206471 28.00863005-51.25206471 53.80942507 0 25.78914418 21.55988765 48.42090951 51.25206471 53.82107591 8.73813333 1.58451485 14.33053867 8.69152995 12.8974848 16.0956416 0.16311182 0.79808285 0.29127111 1.60199111 0.29127111 2.44085191l0 56.5182464c0 0.79225742-0.12815929 1.55538773-0.27379485 2.3068672 1.3631488 7.35750827-4.21760569 14.40626915-12.90913564 15.98495858-29.69800249 5.38851555-51.25206471 28.02028089-51.25206471 53.82107591 0 25.80079502 21.55988765 48.42673493 51.25206471 53.80942507 8.35365547 1.51460978 13.80625067 8.09151147 13.02564409 15.13444693 0.0524288 0.45438293 0.16311182 0.89711502 0.16311182 1.3631488L963.47022222 696.6853632zM641.40592925 416.01069511l0-42.14692978-102.92355983 0 0-78.5383424 102.92355983 0 0-42.68286862-102.92355983 0 0-91.38922382-52.953088 0L485.52928142 252.63672888999997 378.81337173 252.63672888999997l0 42.68286862 106.71590969 0L485.52928142 373.86376533 378.81337173 373.86376533l0 42.14692978 91.04552392 0L358.82052267 606.74084409l59.70475235 0c51.86955947-94.7388416 83.38509369-154.80477013 94.55825351-180.1977856l1.07770312 0c3.78069902 10.43915662 14.13247431 31.5097088 31.0669767 63.21748196l63.48545138 116.98030364 56.45999218 0-112.11607609-190.73014898L641.40592925 416.01069511z"  horiz-adv-x="1024" />

    
    <glyph glyph-name="dianhua-1" unicode="&#58981;" d="M842.77109375 232.39218749999998c-27.09703125 19.03728516-55.47770508 36.64740234-79.90294922 49.58393555-39.54981445 20.94275391-56.50910156 23.36264648-65.82454101 23.36264648-18.81026367 0-35.11019531-9.84884766-48.47528321-29.27979492-8.79530273-12.79204102-15.42304688-28.15795898-21.82385742-43.01639648-4.31481445-10.0096875-11.21458008-26.00850586-16.0527832-32.1066211-8.99797852 2.13200683-30.69588867 11.44160156-67.46862305 36.57541992-34.29254883 23.42830078-71.4337207 53.7346582-99.44648437 81.10256836-27.27799805 28.10926758-57.47273438 65.38113281-80.82483399 99.78574219-25.05498047 36.9140625-34.3227832 58.69239258-36.45052734 67.70355469 6.08382422 4.86515039 22.02178711 11.77866211 32.01082031 16.11949218 14.79867188 6.42565723 30.10526367 13.06933594 42.85713867 21.88792969 19.36432617 13.40692383 29.1871582 29.77347656 29.18715821 48.63884766 0 9.34453125-2.4135293 26.36938477-23.29066407 66.05578125-12.89311523 24.50988281-30.43757812 52.98275391-49.41404297 80.17444336-14.12235352 20.25597656-35.67902344 49.30769531-58.14738281 72.6787793C274.30595703 818.09329102 254.97705078 829.87779786 237.03769531 829.87779786c-43.70273437 0-95.13808594-64.27195312-109.85888672-83.97439454C108.31308594 720.66679687 64.42781153 655.31220703 64.42781153 593.73164063c0-57.54946289 38.20368164-131.83681641 70.26002929-184.02275391 42.92279297-69.89220703 102.29941406-145.19091797 167.19169921-212.0194336l21.14384766-21.22268554 0.24129932-0.24341661c66.60711914-65.10963867 141.64013672-124.69833984 211.28994141-167.7665039 52.00910156-32.16796875 126.04921875-70.498125 183.3899414-70.498125 61.36470703 0 126.49833984 44.03135742 151.6640625 62.9680957 19.63204102 14.76580078 83.6775 66.38229492 83.6775 110.23242187 0 18.00914063-11.74904297 37.39825195-38.08353515 62.89136719-23.29013672 22.53506836-52.24666992 44.16574219-72.43119141 58.34056641Zm40.9865625-147.64130859c-12.25863281-14.19328125-29.35019531-29.65710938-48.12495117-43.54716797-42.84070313-31.67217773-86.82662109-50.58246094-117.68730469-50.58246094-34.64499023 0-91.44755859 22.84198242-155.85117187 62.67436523-66.43362305 41.07172852-138.18603516 98.07626953-202.07988282 160.52871094l-20.67609375 20.7384961c-62.23464844 64.11744141-119.03730469 136.11533203-159.97939453 202.78125-39.69166992 64.63072266-62.4469043 121.63007813-62.44690429 156.39169921 0 30.96729492 18.83408203 75.1087793 50.40624023 118.08632813 13.83556641 18.84041016 29.24279297 35.99542969 43.39054687 48.28482422 13.27570312 11.53634766 21.93978516 15.75588867 25.43809571 16.83439453 9.54035156-4.46087109 39.38844727-30.94716797 81.89850586-92.76943359 16.66239258-24.24849609 31.99016602-49.32246094 43.13232422-70.59234375 13.9921875-26.71813477 16.41102539-37.84649414 16.81057617-40.39119141-0.67151162-0.99853418-3.1062041-3.90683496-10.48860352-8.32589649-8.27615039-4.94981543-19.2346875-9.70804687-29.83280273-14.30920898-13.16619141-5.71551855-26.7731543-11.61782227-37.71580078-18.88541016-17.89268555-11.90039063-26.7890625-26.49164063-26.42967774-43.40162109 0.1661581-8.09412012 0.69479472-32.70137695 46.0453711-99.51767578 25.04487305-36.88444336 57.50973633-76.93382812 86.85834961-107.14482422l0.468312-0.46196192c30.08891602-29.45496094 70.01868164-62.03408203 106.76953125-87.16473633 66.59129883-45.5024707 91.11621094-46.02366211 99.17138672-46.19830078 0.3222624-0.01058291 0.63552833-0.01058291 0.9323877-0.01058378 16.55709961 0.0052919 30.85620117 9.02707031 42.50364258 26.7927539 7.15696875 10.93842773 12.9984082 24.47657227 18.64353516 37.57394532 4.58680957 10.64100586 9.3244043 21.64341797 14.2584082 29.94389648 4.41429786 7.4152002 7.30830761 9.84357422 8.30155078 10.53043945 2.52994042-0.40375372 13.62814453-2.82786328 40.25047852-16.87139648 21.19895508-11.188125 46.18828125-26.55667969 70.35521484-43.28841797 61.6012207-42.64549805 87.99697266-72.59835938 92.45214844-82.18054687-1.074208-3.50361036-5.27790234-12.19623047-16.77348633-25.51798829Zm0 0M506.09287109 516.34394531c1.83991114-10.49915039 11.81364258-17.51484375 22.27157227-15.66017578 28.90037109 5.11544531 57.86112305-0.71543232 81.54922852-16.40575195 23.36686523-15.46804688 38.8143457-38.74394531 43.52176757-65.5218457 1.64835352-9.37415039 9.76253906-15.95698242 18.92083008-15.95698243 1.10913574 0 2.23837207 0.09524971 3.36708105 0.29686201 10.46320312 1.85049316 17.44391602 11.86022461 15.59926758 22.35884766-6.56165917 37.33743164-27.94737305 69.67001953-60.21958008 91.03535156-31.92987305 21.15870117-70.78913086 29.04697266-109.41240234 22.20644531-10.46320312-1.84890234-17.44286133-11.85864258-15.59768554-22.35251953Zm0 0M528.36435547 627.20742187c55.43121094 9.8128125 111.04013672-1.40070411 156.58769531-31.5721582 45.21084961-29.94336914 75.14367187-75.06325195 84.27708985-127.04765625 1.6430625-9.3646582 9.76253906-15.9459082 18.92083007-15.9459082 1.10913574 0 2.23255372 0.0947206 3.36231739 0.2910419 10.45740234 1.84467481 17.44822266 11.86022461 15.59926758 22.35884765-10.98228516 62.52732422-46.84333008 116.71523438-100.97402344 152.55527344-53.78862305 35.63876953-119.29570313 48.90392578-184.44550781 37.38295898-10.46373047-1.84943847-17.44338867-11.87024414-15.59821289-22.3630664 1.84255664-10.49282227 11.81311523-17.51009766 22.27104492-15.65964844Zm0 1e-8M961.70117188 489.68144531c-17.43864258 99.25576172-74.39862305 185.28574219-160.39248047 242.24501953C715.65224609 788.65415039 611.30498047 809.77795898 507.49384766 791.40635742c-10.46478516-1.84996582-17.44444336-11.86022461-15.60032227-22.35357422 1.84043847-10.4980957 11.81416992-17.50957031 22.26884766-15.65964843 94.09306641 16.6528125 188.54560547-2.41882031 265.95263672-53.68807618 77.08992187-51.04599609 128.11552734-128.01972656 143.70117187-216.72246093 1.6430625-9.36360352 9.76790039-15.95170898 18.92504883-15.95170899 1.11019043 0 2.23360839 0.09577881 3.36231738 0.30268213 10.46373047 1.84414746 17.44980469 11.85380859 15.59979492 22.34830078Zm-1e-8 0"  horiz-adv-x="1024" />

    
    <glyph glyph-name="dui" unicode="&#58885;" d="M570.64801448 169.13237577999996L215.8327932 563.16410303a16.63326562 16.63326562 0 0 1-23.53323692 1.41666152L88.74997805 471.33114404a16.66659902 16.66659902 0 0 1-1.04999589-23.53323691L446.91518567 48.83286592000002c0.28333213-3.48331904 1.66666026-6.89997217 4.16664932-9.66662754l83.38299345-92.61628945a16.66659902 16.66659902 0 0 1 14.46660791-5.29997872 16.39993359 16.39993359 0 0 1 13.46661211 4.03331749l103.58291075 93.26628633a16.2832667 16.2832667 0 0 1 4.99997988 8.59996493l738.93032315 665.33062237a16.66659902 16.66659902 0 0 1 1.29999463 23.4832377L1327.81159671 828.57968848c-5.99997568 6.66663925-16.64993232 7.33330371-23.4999044 1.16666191L570.66468118 169.13237577999996z"  horiz-adv-x="1517" />

    
    <glyph glyph-name="jiaohusheji" unicode="&#59100;" d="M958.087824 722.048179c0 4.64581-0.222057 9.117658-0.895393 13.760398-5.975085 40.031738-43.550888 72.697719-84.470857 72.697719-87.432305 0.116657-174.86154 0.116657-262.349103 0.116657-5.079692 0-10.050913-0.556679-14.962783-1.434675-40.978297-8.017604-70.846558-44.011376-70.846558-85.47472l0-179.616844c0-4.201695 0.222057-8.458649 0.8913-12.718673 5.582135-41.292452 44.052309-74.355475 85.365226-73.968665 43.434232 0.385786 86.701664 0.112564 129.975237 0.112564 43.09961 0 86.257549 0.109494 129.469724-0.112564 14.403035-0.163729 27.969005 2.708692 40.421618 9.510608 29.755698 16.254196 46.895053 40.96397 47.288003 74.90499C958.587198 600.582757 958.087824 661.289374 958.087824 722.048179zM897.79053 554.035628c-0.116657-21.836331-17.922185-38.863123-40.144302-38.97978-38.860053-0.106424-77.603449 0-116.460432 0-38.860053 0-77.603449-0.218988-116.29261 0.116657-17.033955 0.105401-29.257348 8.731872-36.404118 23.938202-2.455935 5.13802-3.62762 10.66899-3.62762 16.476253 0 50.970882-0.112564 101.886505 0 152.857387 0.163729 22.394033 18.198477 40.414455 40.697911 40.414455 77.268828 0.112564 154.48342 0.112564 231.810576 0 21.939685-0.105401 40.304961-17.248849 40.421618-38.863123C898.18041 658.024004 898.18041 606.007303 897.79053 554.035628zM498.767628 223.102497c0 6.081509-0.109494 12.216229-1.171686 18.413372-6.866385 41.408085-45.057195 72.311933-84.972277 72.031547-43.550888-0.385786-86.929862-0.112564-130.48075-0.112564-44.271296 0-88.597851-0.109494-133.152603 0.112564-4.912893 0-9.716292-0.49835-14.406105-1.551332-40.697911-8.895601-69.562309-44.278459-69.671803-85.464487-0.116657-59.600423 0-119.029954 0-178.623213 0-23.722284 8.482185-44.172035 25.232684-61.144592 15.855106-16.090467 35.06154-26.045189 57.94983-26.151613 89.277326-0.385786 178.434925-0.502443 267.712251 0 23.780613 0.106424 43.824111 10.781554 59.791781 28.030403 16.411785 17.634636 23.390733 38.58683 23.282263 62.524009C498.658134 108.446154 498.880191 165.832142 498.767628 223.102497zM438.638155 63.162808c0-18.017352-7.424086-31.787984-24.453948-39.526225-5.301749-2.322905-11.167341-3.593851-17.139356-3.593851L166.911474 20.042731c-23.394826 0-41.593304 17.911952-41.593304 41.077557 0 50.526767-0.276293 101.118002 0.112564 151.699004 0.109494 24.822338 18.591427 40.800241 40.421618 40.906665 38.856983 0.222057 77.600379 0.116657 116.460432 0.116657 37.688367 0 75.482135 0 113.167432-0.116657 15.633049 0.116657 27.972075-5.520737 36.683481-18.512632 4.9088-7.468089 6.473435-15.814174 6.473435-24.436552C438.750719 161.630447 438.750719 112.309134 438.638155 63.162808zM89.308025 522.13815c30.429033-30.072923 60.853973-60.09161 91.115184-90.281189 2.733251-2.708692 3.737114-1.329275 5.582135 0.49835 29.871331 29.577642 59.794851 59.152215 89.663112 88.73395 0.8913 0.877997 2.343371 1.544169 2.343371 3.586688l-5.079692 0c-16.972557 0-33.889855-0.109494-50.912553 0-11.615549 0-17.703197 6.087649-17.703197 17.529235 0 6.579859 0.280386 13.269211 0.895393 19.954471 2.623757 23.938202 8.595772 47.103808 18.588357 69.103868 12.506848 27.811416 30.319539 51.749618 53.0441 72.206532 19.872606 17.74106 41.98216 31.792077 66.938552 41.408085 20.156062 7.738241 40.814568 12.882402 62.364373 14.539134 2.176572 0.163729 4.799306 0 4.799306 3.75758-0.109494 13.986549 0 28.139897 0 42.180681 0 2.100848-0.38988 2.879584-2.958378 2.76702-10.942213-0.666172-21.717627-1.824555-32.379455-3.867074-50.082652-9.623171-94.131891-31.241538-131.929752-65.35345-38.245046-34.490535-64.092737-76.561723-78.386278-125.602649-6.644327-22.394033-9.657964-45.388746-9.770528-68.834738-0.112564-14.037714-6.084579-19.954471-20.37812-19.954471l-42.094724 0c-1.674129 0-3.351328 0.49835-5.305843-0.666172C88.416725 523.074476 88.805582 522.411373 89.308025 522.13815zM936.593278 246.98851c-30.315446 30.125111-60.857043 60.09161-91.118254 90.216721-2.733251 2.708692-3.904936 1.004887-5.582135-0.655939-29.868261-29.581736-59.794851-59.213613-89.663112-88.789209-0.782829-0.771573-2.460028-1.434675-1.954515-3.371794l54.602595 0c12.619412-0.163729 18.871813-6.582929 18.984377-19.185968 0.163729-19.400862-3.241834-38.423101-8.42795-57.106626-12.565177-45.001937-37.797861-81.932034-74.314543-111.291712-23.951505-19.291368-50.807153-32.946366-80.842213-40.523949-12.226462-3.034103-24.566512-5.913687-37.185924-6.801916-2.230808-0.270153-5.858428 0.615007-5.858428-3.864004 0.112564-13.992689 0-28.139897 0-42.180681 0-2.159176 0.673335-3.488451 3.013637-2.822278 5.025457 1.270946 10.276041 0.99056 15.465227 1.493004 30.537504 3.208065 59.234079 12.220323 86.541005 25.594935 37.124526 18.137079 68.444858 43.345204 93.680613 75.79322 35.898605 46.057989 55.108109 98.18316 56.665581 156.348907 0.615007 20.730137 4.134157 24.604374 25.068955 24.604374l42.37511 0C938.321642 245.987716 937.372014 246.380666 936.593278 246.98851z"  horiz-adv-x="1024" />

    
    <glyph glyph-name="xiazai" unicode="&#59023;" d="M514.752 155.584L270.784 494.656H404.48V771.328h220.864v-276.672H759.04L515.072 155.584h-0.32zM902.912 245.056h-84.8v-162.112H206.528V245.056h-85.44v-248.384h781.888V245.056z"  horiz-adv-x="1024" />

    
    <glyph glyph-name="Monitor" unicode="&#58949;" d="M806.7 188.7c-20.9-0.1-44.6-8.4-71.9-26-68.4-44.3-102.8-64.9-138.4-64.5-18.1 0-38.7 5-66.6 16.5-38.2 15.9-64.3 26.8-79.2 35.1-7 3.9-11.4 7.1-13 8.9 0.1 0.1 0.3 0.2 1 0.5 1.6 0.8 5.6 1.7 11.3 1.7 28.7 0.5 84.5-21.3 117.9-29.6 8.4-2 16.4-2.9 24.1-2.9 39 0.2 71.4 25.8 71.8 62-0.3 33.3-27.9 60.9-73.9 72.2-75.3 19.2-112 35-165.5 35.2-14 0-29-1.1-45.8-3.6C267.1 276.9 120 152.3 118.4 151.8l-13.9-11.4 118.2-183.7 14.1 5s13.2 4.8 34.6 9.7c21.4 4.9 50.4 9.8 79.9 9.8 54.1 1.3 116.3-43 210.3-43.7C680-62 754.7 24 807.4 55.4c34.2 21.2 53.4 50.9 53.7 80.7 0.1 13.7-4.8 27.9-15 37.8-10.2 10-24.3 14.9-39.4 14.8z m-19-98.9c-61.2-38.5-127.1-112.5-226.1-112.1-81.3-0.8-138.3 42.5-210.3 43.8-47.5-0.1-91.1-10.9-112.7-17.2l-82 127.4c15 11.7 40.7 31 71.5 51.1 48.7 32.1 110.8 65.4 155.9 71.6 15.3 2.2 28.4 3.2 40.5 3.2 44.5 0.2 78.3-14.1 156.2-34.1 37.9-10.2 44.8-26.4 44.4-33.2-0.1-7.9-8.8-21.3-33.1-21.8-4.6 0-9.8 0.7-15.5 1.9-29.1 6.6-84.6 30.2-126.5 30.6-17 0.4-39.1-5-48.2-27.4-2-4.5-3.3-10.3-3.3-16-0.2-10.4 4.8-20.5 11.1-26.8 18.7-18.5 48.3-29 105.9-53.5 30.4-12.6 55.9-19.3 81-19.3 51.2 0.2 91.2 27.1 158.8 70.4L745 145.6l10.2-17c23.1 15.1 41 20 51.5 19.9 14.9-1.7 14.2-3.9 15.6-12.4 0.4-10-8.7-30.4-34.6-46.3zM538 833.9c-210.5 0-381.1-177.5-381.1-396.5-0.1-56.5 11.3-110.3 31.9-159.2l35.4 16.1v0.1c-16.1 37.9-25.3 79.3-27.7 122.7h139.4c0.6-19.6 1.5-39 3.4-57.7l38.4 4.1c-1.7 17.5-2.6 35.5-3.1 53.7h144.1v-64.5h38.7v64.5h144.1c-1.3-48.2-6.8-94-16.3-135.2l37.6-9.3c10.2 44.4 16.1 93.3 17.4 144.5h139.9c-2.9-54.1-17.3-104.7-40.7-149.7l34-19.2c29.2 56.2 45.9 120.7 45.9 189.1 0 218.9-170.7 396.5-381.3 396.5zM335.9 457.5H196.5c4.9 90.5 41.9 172 99.7 231.9 21-17.9 43.7-33.8 68.1-46.8-16.7-54.7-26.6-117.6-28.4-185.1z m-10.3 258.8c31.2 25.7 66.7 45.9 105.3 59.2-14.9-18-28.2-39.2-39.7-62.9-4.9-10-9.4-20.6-13.7-31.6-18.4 10.2-35.7 22-51.9 35.3z m193.1-258.8H374.6c1.6 61.7 10.7 119 25.2 168.4 37.2-15.1 77.2-23.8 118.9-26v-142.4z m0 182.6c-37.2 2.1-73 10.1-106.1 23.8 4.2 10.7 8.5 21 13.2 30.6 26.4 54.4 59.8 87.3 92.9 96.3v-150.7z m231.7 76.2c-16.1-13.4-33.5-25.1-51.9-35.3-4.2 11-8.9 21.6-13.7 31.6-11.5 23.7-24.9 45-39.8 62.9 38.8-13.3 74.3-33.5 105.4-59.2z m-193.1 74.5c33.2-9.1 66.5-41.9 93-96.3 4.6-9.5 9-19.8 13-30.4-33.1-13.6-68.8-21.8-106.1-24l0.1 150.7z m0-333.3V599.8C599 602 639 611 676.2 626c14.4-49.3 23.5-106.8 25.2-168.5H557.3z m182.9 0c-1.7 67.6-11.8 130.6-28.5 185.3 24.4 13 47.4 28.6 68.4 46.6 57.7-60 94.5-141.4 99.6-231.8H740.2v-0.1z"  horiz-adv-x="1024" />

    
    <glyph glyph-name="upgrade" unicode="&#58900;" d="M262.8 502.3h86.2v-80.4h325v80.4h87.5c21.5 0 39 17.5 39 39.2 0 13.9-7.2 26-17.9 33l-243.6 246c-7.3 7.4-17.2 11.5-27.6 11.5-10.3 0-20.3-4.1-27.6-11.5l-248.6-251.4c-11.1-11.2-14.4-28.1-8.4-42.7 6.1-14.6 20.3-24.1 36-24.1zM349 388.6h325v-65.3h-325zM349 257.6h325v-65.3h-325zM349 126.7h325v-65.3h-325zM403.7-10.4h215.5v-53.2h-215.5z"  horiz-adv-x="1024" />

    
    <glyph glyph-name="yanfa" unicode="&#58954;" d="M886.601 762.278h-749.206c-37.107 0-67.296-32.927-67.296-73.397v-609.761c0-40.476 30.189-73.397 67.296-73.397h749.205c37.112 0 67.301 32.921 67.301 73.397v609.761c-0.005 40.47-30.192 73.397-67.3 73.397v0zM137.395 718.49h749.205c15.147 0 27.472-14.383 27.472-32.062v-168.649h-804.143v168.649c0 17.679 12.32 32.062 27.467 32.062v0zM886.601 45.547h-749.206c-15.147 0-27.467 13.347-27.467 29.747l0 395.069h804.143v-395.069c0.001-16.401-12.325-29.747-27.47-29.747v0zM211.423 617.313c0 11.009 4.533 21.951 12.32 29.738 7.783 7.783 18.725 12.315 29.734 12.315 11.008 0 21.95-4.532 29.738-12.315 7.782-7.787 12.315-18.729 12.315-29.738 0-11.009-4.533-21.951-12.315-29.733-7.788-7.788-18.73-12.32-29.738-12.32-11.009 0-21.951 4.532-29.734 12.32-7.787 7.782-12.32 18.724-12.32 29.733v0zM325.439 617.313c0 11.009 4.532 21.951 12.32 29.738 7.782 7.783 18.724 12.315 29.733 12.315 11.009 0 21.951-4.532 29.738-12.315 7.783-7.787 12.315-18.729 12.315-29.738 0-11.009-4.532-21.951-12.315-29.733-7.787-7.788-18.729-12.32-29.738-12.32-11.009 0-21.951 4.532-29.733 12.32-7.788 7.782-12.32 18.724-12.32 29.733v0zM439.454 617.313c0 23.224 18.825 42.053 42.053 42.053 23.224 0 42.048-18.828 42.048-42.053v0c0-23.224-18.824-42.053-42.048-42.053-23.228 0-42.053 18.828-42.053 42.053v0 0zM460.103 151.551l37.614-0.227 72.367 225.312-37.501-0.057-72.48-225.027zM211.248 260.914l-0.043-16.41 0.023-16.587 146.371-57.219 0.015 31.943-93.703 40.993 94.34 37.568 0.142 33.092-147.144-53.38zM682.668 311.924l0.137-33.087 94.341-37.573-93.703-40.993 0.013-31.938 146.376 57.219 0.019 16.582-0.039 16.41-147.144 53.38zM682.668 311.924z"  horiz-adv-x="1024" />

    
    <glyph glyph-name="zhiding" unicode="&#58980;" d="M511.34246825 658.39920044l-324.87341307-324.95581055 208.96490478 0.08239746 0.57595825-371.07284545 231.15948486-0.32876588 1e-8 371.40161133 209.21127319-0.16397094-325.03738403 325.03738403zM186.4682312 804.31274414l649.91079712 0 0-83.27334594-649.91079712 0 0 83.27334594z"  horiz-adv-x="1024" />

    
    <glyph glyph-name="programming__easyiconnet" unicode="&#58882;" d="M904.59477333 789.37201778H119.40977778c-29.57767111 0-53.63029333-24.05944889-53.63029333-53.63256889v-703.47889778c0-29.57312 24.05262222-53.63256889 53.63029333-53.63256889h785.18727111c29.56856889 0 53.62574222 24.05944889 53.62574222 53.63256889V735.73944889c0 29.57084445-24.05944889 53.63256889-53.62801778 53.63256889z m-161.70097778-90.05966223a19.80416 19.80416 0 0 0 19.7996089 19.80416h19.80416a19.79733333 19.79733333 0 0 0 19.79960888-19.80416v-22.44380444a19.79960889 19.79960889 0 0 0-19.79960888-19.80188444h-19.80416a19.80188445 19.80188445 0 0 0-19.7996089 19.80188444v22.44380444z m-92.08490666 0a19.80643555 19.80643555 0 0 0 19.80416 19.80416h19.79960889a19.80643555 19.80643555 0 0 0 19.80416-19.80416v-22.44380444a19.80416 19.80416 0 0 0-19.80416-19.80188444h-19.79960889a19.80416 19.80416 0 0 0-19.80416 19.80188444v22.44380444z m243.05436444-656.32256H130.13674667V597.57909333H893.86097778v-554.58929778z m0.51882667 633.87875556a19.80188445 19.80188445 0 0 0-19.79960889-19.80188444h-19.80416a19.79733333 19.79733333 0 0 0-19.80416 19.80188444v22.44380444a19.80188445 19.80188445 0 0 0 19.80416 19.80416h19.80416a19.80188445 19.80188445 0 0 0 19.79960889-19.80416v-22.44380444zM257.34712889 299.36981333000006l143.55114666-66.75569778a27.91879111 27.91879111 0 0 1 26.76053334 1.78858667 27.79363555 27.79363555 0 0 1 12.89329778 23.51786667v0.73272889c0 10.81116445-6.33742222 20.74396445-16.14734222 25.30190222l-89.78204445 41.71320889 89.78204445 41.72003556a27.99616 27.99616 0 0 1 16.14734222 25.29962666v0.72590222c0 9.58008889-4.82190222 18.37511111-12.89329778 23.51559112a27.85735111 27.85735111 0 0 1-15.03004444 4.35996444c-4.04821333 0-8.10780445-0.88974222-11.74186667-2.57820444l-143.54204445-66.74887112a27.99843555 27.99843555 0 0 1-16.13368888-25.29735111v-1.99566222c-0.00227555-10.79296 6.32604445-20.72120889 16.13596444-25.29962667zM441.83096889 163.40081778a27.98933333 27.98933333 0 0 1 22.528-11.44604445h0.71907556a27.80501333 27.80501333 0 0 1 26.56028444 19.37863112l94.56071111 293.00280888a27.98933333 27.98933333 0 0 1-4.02773333 24.96967112 27.99388445 27.99388445 0 0 1-22.53255112 11.44604444h-0.71907555a27.81411555 27.81411555 0 0 1-26.57393778-19.37863111L437.77592889 188.34773332999998a28.02346667 28.02346667 0 0 1 4.05504-24.94691555zM583.44789333 392.68579555c0-10.79978667 6.33287111-20.73258667 16.14279112-25.31100444l89.78204444-41.71093333-89.78204444-41.71093333a27.99843555 27.99843555 0 0 1-16.14279112-25.30190223v-0.73272889a27.78453333 27.78453333 0 0 1 12.89784889-23.52014222 27.86645333 27.86645333 0 0 1 15.00501333-4.37589333c4.08007111 0 8.03043555 0.87153778 11.76462223 2.59640889l143.54204444 66.75342222c9.80081778 4.57159111 16.13368889 14.49984 16.13368889 25.2928v1.99566222c0 10.80661333-6.33287111 20.73713778-16.14279111 25.29962667l-143.54204445 66.74887111a27.97340445 27.97340445 0 0 1-11.72366222 2.57365333c-5.36348445 0-10.56540445-1.50414222-15.03004444-4.35086222a27.76177778 27.76177778 0 0 1-12.9024-23.52241778v-0.72362667z"  horiz-adv-x="1024" />

    
    <glyph glyph-name="youjian" unicode="&#58942;" d="M720.41 338.051c-11.487 0-24.615 4.923-32.82 13.128L269.128 768c-18.051 18.051-18.051 49.23 0 67.282s49.231 18.051 67.282 0l416.82-416.82c18.052-18.052 18.052-49.231 0-67.283-8.204-8.205-21.333-13.128-32.82-13.128zM303.59-80.41c-11.487 0-24.616 4.923-32.82 13.128-18.052 18.051-18.052 49.23 0 67.282l416.82 416.82c18.051 18.052 49.23 18.052 67.282 0 18.051-18.05 18.051-49.23 0-67.282L336.41-67.282c-9.846-8.205-21.333-13.128-32.82-13.128z"  horiz-adv-x="1024" />

    
    <glyph glyph-name="fenxiao1" unicode="&#58892;" d="M885.21611328 150.92373047C837.28496094 276.82792969 700.64755859 369.5859375 537.03037109 378.38994141V471.22265625c85.75839844 12.18779297 151.72998047 85.03769531 151.72998047 173.36425781 0 96.88623047-79.25800781 175.37695313-177.01699219 175.37695313-97.76777344 0-176.99326172-78.48984375-176.99326171-175.37695313 0-88.32304688 65.96367188-161.17646484 151.70449218-173.36425781v-92.83271484C322.775 369.5859375 186.06201172 276.73740234 138.17128906 150.74531249999995 95.58212891 137.35605468999995 64.48818359 98.32470703000001 64.48818359 51.69345702999999c0-57.6421875 47.16914062-104.38681641 105.33779297-104.3868164 58.19414062 0 105.35800781 46.74462891 105.35800782 104.3868164 0 53.75390625-41.17236328 97.52080078-93.90146485 103.22226563C229.32880859 257.85761719000004 346.67773437 332.67802733999997 486.45546875 340.83339844v-188.12109375c-45.90966797-11.27109375-80.0578125-52.0734375-80.0578125-101.01884766 0-57.6421875 47.17705078-104.38681641 105.33779297-104.38681641 58.1765625 0 105.34833984 46.74462891 105.34833984 104.38681641 0 48.94453125-34.18417969 89.746875-80.06923828 101.01884766v188.12109375c139.82607422-8.15009766 257.19257813-82.99423828 305.1984375-185.95371094-52.47949219-5.96865234-93.38730469-49.58085937-93.38730469-103.18095703 0-57.6421875 47.15419922-104.38242188 105.34746094-104.38242188 58.16162109 0 105.33867188 46.74023438 105.33867188 104.38242188 0 46.84921875-31.37519531 86.02294922-74.29570313 99.225z m0 0"  horiz-adv-x="1024" />

    
    <glyph glyph-name="yonghuhuaxiang" unicode="&#58901;" d="M875.9196875-51c39.2690625 0 71.115 31.845 71.115 71.115V747.885C946.97375 787.155 915.12875 819 875.9196875 819H148.0803125c-39.27 0-71.115-31.845-71.115-71.115v-727.7709375c0-39.27 31.845-71.115 71.115-71.115h727.839375z m-1.903125 796.9828125l-0.0609375-717.69375c-97.704375 86.821875-258.785625 103.029375-258.785625 170.1234375 0 96.2934375 77.3784375 89.4140625 77.3784375 276.8409375S512 662.6803125 512 662.6803125s-180.5484375 0-180.5484375-187.426875 77.3784375-180.5484375 77.3784375-276.8409375c0-67.0921875-161.0803125-83.29125-258.7865625-170.105625V745.9828125h723.973125z"  horiz-adv-x="1024" />

    
    <glyph glyph-name="shengji" unicode="&#58991;" d="M959.00906667 326.12159999999994c-6.02773333 31.3952-21.78133333 58.29546667-44.08213334 81.20213333-25.7856 26.4864-56.61013333 43.79413333-93.296 49.74933334-11.2128 1.81973333-22.6368 2.35093333-34.48746666 3.5232 0 1.92213333-0.03413333 4.00533333 0.00426666 6.08746666 0.8832 47.34293333-9.3056 92.0512-32.38613333 133.52853334-55.14453333 99.1072-163.16053333 151.72693333-275.34613333 134.34133333-113.26186667-17.55413333-203.16906667-106.72-220.87786667-219.2192-0.59626667-3.7888-1.76213333-5.1392-5.7312-5.2768-49.10186667-1.70026667-91.77706667-19.15306667-127.65653333-52.81386667-49.31093333-46.26026667-67.97866667-103.97653333-61.66506667-170.13546666 4.2688-44.73813333 23.0496-83.38346667 54.45866667-115.632 35.01866667-35.95413333 77.54026667-57.056 127.7504-59.2224 42.032-1.81333333 84.19306667-0.66026667 126.2976-0.7456 1.472-0.0032 2.94506667-0.00106667 4.41706666-0.0032v37.088c-36.07466667-0.02026667-72.14826667-0.01813333-108.22293333 0.08853333-57.5104 0.1696-104.75626667 22.0736-138.24 69.3984-27.1328 38.34986667-37.06133333 81.24373333-26.02453333 127.61813333 10.272 43.16373333 33.63946667 77.6256 71.5168 101.41226667 31.3408 19.68213333 65.41653333 28.63466667 102.59413333 24.77866667 14.032-1.45493333 14.56-0.80853333 15.30133333 12.90346666 1.62453333 30.0736 9.3632 58.57066667 22.89066667 85.34293334 38.9024 76.9824 102.11093333 120.95893333 187.2704 128.61013333 78.3072 7.03466667 144.06293333-22.93973333 193.90826667-83.56906667 42.84693333-52.11626667 59.70346667-112.64426667 49.5104-180.0576-1.6032-10.60266667-1.03786667-12.57706667 10.8544-12.43413333 22.47146667 0.272 44.85653333 0.49386667 67.008-5.38133333 64.7136-17.16266667 109.10826667-83.25653333 99.77386666-149.568-9.3504-66.42773333-65.97226667-117.45813333-132.896-118.75413334-41.5104-0.8032-83.0464-0.30613333-124.57173333-0.34133333-5.9232-0.00426667-11.84533333 0-17.76853333-0.00213333v-37.15946667c46.29653333-0.00106667 92.58986667 0.0032 138.8864 0.04053333 7.55733333 0.00533333 15.16906667 0.08853333 22.6624 0.94933334 38.2752 4.39146667 71.4784 19.824 99.17866666 46.688 47.82613333 46.3808 61.20533333 103.20746667 48.96533334 166.96533333zM487.3664 383.39200000000005c-16.70826667-14.30506667-32.01173333-27.3984-47.30453333-40.50453333-16.93973333-14.51733333-33.80693333-29.11786667-50.89173334-43.46133334-1.96906667-1.6544-5.0752-2.30933333-7.75786666-2.67946666-3.75466667-0.51626667-5.78453333 1.5776-5.7824 5.44533333 0.00746667 12.41813333-0.32746667 24.85013333 0.29013333 37.23626667 0.1408 2.8288 3.11893333 6.0192 5.56906667 8.1472 22.41173333 19.45493333 44.9952 38.7136 67.53066666 58.0288 18.26346667 15.65333333 36.528 31.30453333 54.7936 46.9568 5.95093333 5.1008 10.31466667 5.09013333 16.28586667-0.0288 40.21013333-34.4608 80.35306667-69.00053333 120.71573333-103.28213334 5.312-4.51093333 8.09493333-9.03786667 7.57333334-16.2656-0.6688-9.26293333 0.08106667-18.62186667-0.26666667-27.92106666-0.1024-2.73706667-1.4112-7.37066667-2.928-7.70666667-3.1136-0.69013333-7.632-0.1568-10.0128 1.7856-14.42773333 11.7632-28.416 24.0704-42.5536 36.19093333a91817.16266667 91817.16266667 0 0 1-51.264 43.92213334c-1.14986667 0.9856-2.384 1.8752-4.848 3.8016v-7.61066667c0.00426667-110.00533333 0.0064-220.0096 0.01493333-330.016 0.00106667-9.8976-0.34773333-10.27093333-10.05546666-10.27626667-10.08853333-0.00533333-20.17706667-0.01493333-30.2656 0.00213334-8.07893333 0.01386667-8.85653333 0.832-8.85653334 9.14346666l0.01173334 330.01493334 0.00106666 9.07626666z"  horiz-adv-x="1024" />

    
    <glyph glyph-name="lianjiequzhong" unicode="&#58972;" d="M965.33333375 216l-128.00000062 106.66666688v-58.66666688H645.33333312V170.66666625000005h192.00000001v-61.33333313zM279.99999969 64.00000031000002l-151.99999969 151.99999969 208.00000031 208.00000031-37.33333406 37.33333313-245.3333325-245.33333344 226.66666594-226.66666688 245.33333344 245.33333344-37.33333313 37.33333313zM656 818.66666625l-242.66666625-245.3333325 37.33333312-37.33333406 205.33333313 208.00000031 151.99999969-151.99999969-207.99999938-208.00000031 37.33333313-37.33333312 245.33333343 245.33333343zM317.33333375 330l226.26666656 226.26666656 75.43999969-75.43999969-226.26666656-226.26666656z"  horiz-adv-x="1024" />

    
    <glyph glyph-name="zhifubao" unicode="&#59201;" d="M636.65278526 291.44555214c61.69637021 112.18813682 84.14245107 218.75778193 84.14245195 218.75778194H513.25644834v78.53205498h246.79717119v33.64798711H513.25644834V740.17471348h-112.18094121v-117.79133731H176.71182558v-33.64798711h224.36458067v-78.53205498H210.36430918v-33.65248359h387.02469726c0-5.61039609 0-5.61039609-5.61039608-11.2162957 0-39.26018145-28.04298662-95.35784766-50.47917539-140.22302872C255.2339876 437.29606552 171.09603301 369.98570185000005 148.65984424 358.75951318c-190.70670058-134.61263262-11.2162957-302.88584355 16.83478652-297.28084394 201.92839277-44.86967842 330.93512578 39.26377881 420.67897911 145.83882128 5.60949698-5.61039609 11.2162957-5.61039609 16.83028915-5.61039609 61.69637021-33.64888623 358.97721328-173.88000967 358.97721416-173.88000878V196.09130185000004c-44.87327578 0-207.53429151 56.08957148-325.32832792 95.3542503zM490.81486308 240.96457763c-140.22302871-179.49130488-308.49803789-123.39633691-336.54102451-112.1800412-67.30136982 16.83118828-89.7429542 140.22752607-5.61399433 179.49580136 140.22752607 44.86967842 263.63195771-5.61399346 353.37581191-50.48367187-5.60589961-11.22079219-11.22079219-16.83208828-11.22079307-16.83208829z m0 0"  horiz-adv-x="1024" />

    
    <glyph glyph-name="youjian1" unicode="&#58902;" d="M764.89697 357.624242l-449.939394-442.181818c-15.515152-15.515152-40.339394-15.515152-54.303031 0-15.515152 15.515152-15.515152 38.787879 0 54.303031l449.939394 442.181818c15.515152 15.515152 40.339394 15.515152 54.303031 0 13.963636-15.515152 13.963636-40.339394 0-54.303031zM314.957576 854.109091l449.939394-442.181818c15.515152-15.515152 15.515152-38.787879 0-54.303031s-40.339394-15.515152-54.303031 0l-449.939394 442.181819c-15.515152 15.515152-15.515152 38.787879 0 54.30303 13.963636 13.963636 38.787879 13.963636 54.303031 0z"  horiz-adv-x="1024" />

    
    <glyph glyph-name="shuxing" unicode="&#58960;" d="M894.1625 296.75625c-48.825 81.675-19.51875 186.1875 65.475 233.71875l-91.40625 152.83125a179.83125 179.83125 0 0 0-88.875-23.34375c-97.7625 0-176.9625 77.00625-176.9625 171.9h-182.8125a164.86875 164.86875 0 0 0-23.625-86.175C347.1875 664.125 238.625 636.45 153.40625 683.64375L62 530.86875c26.38125-14.4 49.1625-35.60625 65.30625-62.71875 48.7125-81.45 19.575-185.79375-65.1375-233.4375L153.6875 81.9375c25.9875 14.625 56.25 22.95 88.48125 22.95 97.36875 0 176.5125-76.3875 176.90625-170.8875H602a164.925 164.925 0 0 0 23.5125 85.21875c48.7125 81.50625 157.10625 109.29375 242.15625 62.325l91.40625 152.83125a172.125 172.125 0 0 0-64.9125 62.38125z m-383.2875-95.625c-104.0625 0-188.4375 81.3375-188.4375 181.8 0 100.40625 84.375 181.85625 188.4375 181.85625s188.4375-81.39375 188.4375-181.85625c0-100.40625-84.375-181.8-188.4375-181.8z"  horiz-adv-x="1024" />

    
    <glyph glyph-name="zhifu" unicode="&#58919;" d="M766.862222 789.048889c-10.24 11.377778-21.617778 20.48-35.271111 27.306667-11.377778 4.551111-26.168889 7.964444-43.235555 9.102222-17.066667 1.137778-36.408889-4.551111-59.164445-15.928889-14.791111-7.964444-34.133333-18.204444-60.302222-31.857778-26.168889-13.653333-51.2-27.306667-78.506667-40.96-29.582222-15.928889-62.577778-32.995556-95.573333-50.062222h426.666667l-54.613334 102.4z m-27.306666-574.577778c-23.893333 0-40.96 4.551111-53.475556 13.653333-12.515556 9.102222-21.617778 19.342222-26.168889 30.72-6.826667 13.653333-10.24 28.444444-11.377778 45.511112 0 25.031111 9.102222 46.648889 26.168889 63.715555 18.204444 17.066667 39.822222 26.168889 64.853334 26.168889h227.555555v134.257778c0 25.031111-9.102222 46.648889-26.168889 63.715555-18.204444 17.066667-39.822222 26.168889-64.853333 26.168889h-728.177778c-25.031111 0-46.648889-9.102222-64.853333-26.168889-18.204444-17.066667-26.168889-38.684444-26.168889-63.715555v-493.795556c0-12.515556 2.275556-23.893333 7.964444-35.271111 4.551111-11.377778 11.377778-20.48 20.48-28.444444s18.204444-14.791111 29.582223-19.342223c11.377778-4.551111 23.893333-6.826667 36.408888-6.826666h728.177778c12.515556 0 23.893333 2.275556 35.271111 6.826666 10.24 4.551111 20.48 11.377778 28.444445 19.342223s13.653333 18.204444 18.204444 28.444444c4.551111 11.377778 6.826667 22.755556 6.826667 35.271111v179.768889h-228.693333z m-416.426667-48.924444c-77.368889 0-139.946667 62.577778-139.946667 138.808889 0 76.231111 62.577778 138.808889 139.946667 138.808888 77.368889 0 139.946667-62.577778 139.946667-138.808888 0-76.231111-62.577778-138.808889-139.946667-138.808889z m392.533333 170.666666c-9.102222-9.102222-13.653333-20.48-13.653333-32.995555 0-13.653333 4.551111-23.893333 13.653333-34.133334 9.102222-9.102222 20.48-13.653333 32.995556-13.653333 13.653333 0 23.893333 4.551111 32.995555 13.653333 9.102222 9.102222 13.653333 20.48 13.653334 34.133334s-4.551111 23.893333-13.653334 32.995555c-9.102222 9.102222-20.48 13.653333-32.995555 13.653334-12.515556 0-23.893333-4.551111-32.995556-13.653334z m-386.844444-18.204444c-20.48 9.102222-31.857778 18.204444-31.857778 28.444444 1.137778 15.928889 9.102222 23.893333 23.893333 25.031111 17.066667 0 26.168889-10.24 26.168889-30.72h26.168889c-1.137778 29.582222-14.791111 46.648889-38.684444 50.062223v19.342222h-18.204445v-19.342222c-27.306667-2.275556-40.96-18.204444-42.097778-46.648889 0-20.48 14.791111-36.408889 44.373334-46.648889 22.755556-9.102222 34.133333-20.48 34.133333-32.995556-1.137778-17.066667-10.24-26.168889-29.582222-27.306666-18.204444 1.137778-27.306667 10.24-27.306667 29.582222h-25.031111c1.137778-31.857778 14.791111-47.786667 43.235556-50.062222v-19.342223h19.342222v20.48c27.306667 2.275556 42.097778 18.204444 44.373333 47.786667-2.275556 21.617778-18.204444 39.822222-48.924444 52.337778z"  horiz-adv-x="1024" />

    
    <glyph glyph-name="liuliang1" unicode="&#59440;" d="M575.8976 580.06186667c0 14.19946667 11.4688 25.66826667 25.66826667 25.66826666s25.66826667-11.4688 25.66826666-25.66826666v-267.60533334c0-14.19946667-11.4688-25.66826667-25.66826666-25.66826666s-25.66826667 11.4688-25.66826667 25.66826666v267.60533334zM489.60853333 483.9424c0 14.19946667 11.4688 25.66826667 25.66826667 25.66826667s25.66826667-11.4688 25.66826667-25.66826667v-172.032c0-14.19946667-11.4688-25.66826667-25.66826667-25.66826667s-25.66826667 11.4688-25.66826667 25.66826667V483.9424zM397.312 410.2144c0.54613333 14.19946667 12.01493333 25.12213333 26.2144 24.576 13.65333333-0.54613333 24.02986667-11.4688 24.576-24.576v-98.304c0-14.19946667-11.4688-25.66826667-25.66826667-25.66826667s-25.66826667 11.4688-25.66826666 25.66826667v98.304zM735.36853333 828.0064H289.1776c-52.4288 0-95.57333333-37.6832-95.57333333-83.5584v-722.5344c0-45.8752 43.14453333-83.5584 95.57333333-83.5584h446.19093333c52.4288 0 95.57333333 37.6832 95.57333334 83.5584V744.9941333300001c0 45.8752-43.14453333 83.01226667-95.57333334 83.01226667z m-350.07146666-41.50613333h255.04426666v-27.8528H385.29706667v27.8528z m127.24906666-791.89333334c-34.95253333 0-63.8976 25.12213333-63.8976 55.7056s28.39893333 55.7056 63.8976 55.7056c34.95253333 0 63.8976-25.12213333 63.8976-55.7056s-28.94506667-55.7056-63.8976-55.7056z m255.04426667 167.1168H258.048V717.14133333h509.5424v-555.4176z"  horiz-adv-x="1024" />

    
    <glyph glyph-name="weihu" unicode="&#58939;" d="M931.85 456.36H838.43c-16.56 0-34.38 12.87-39.69 28.62l-12.78 30.24c-7.56 14.76-4.23 36.36 7.47 48.06l66.51 66.51c11.7 11.7 11.7 30.87 0 42.66l-59.67 59.67c-11.7 11.7-30.87 11.7-42.66 0l-66.96-66.96c-11.7-11.7-33.39-15.21-48.24-7.74L612.8 669.5699999999999c-15.75 5.13-28.71 22.86-28.71 39.42V803.85C584.09 820.41 570.5 834 553.94 834h-84.42c-16.56 0-30.15-13.59-30.15-30.15V708.9c0-16.56-12.87-34.29-28.62-39.42l-29.61-12.15c-14.76-7.47-36.54-3.96-48.24 7.74l-66.96 66.96c-11.7 11.7-30.87 11.7-42.66 0l-59.67-59.67c-11.7-11.7-11.7-30.87 0-42.66l66.51-66.51c11.7-11.7 15.12-33.39 7.47-48.06l-12.78-30.24c-5.22-15.75-23.04-28.62-39.69-28.62H92.15c-16.56 0.09-30.15-13.5-30.15-30.06v-84.33c0-16.56 13.59-30.15 30.15-30.15h92.52c16.56 0 34.29-12.96 39.24-28.71l12.87-31.5c7.47-14.85 3.96-36.54-7.83-48.24L163.97 138.29999999999995c-11.7-11.7-11.7-30.87 0-42.66l59.67-59.67c11.7-11.7 30.87-11.7 42.66 0l64.53 64.53c11.7 11.7 33.39 15.12 48.15 7.56l32.22-13.41c15.75-5.13 28.62-22.95 28.62-39.51v-90.99c0-16.56 13.59-30.15 30.15-30.15H554.3c16.56 0 30.15 13.59 30.15 30.15v90.9c0 16.56 12.87 34.38 28.62 39.51l23.4 9.81-45.45 45.45c-25.11-8.46-51.66-12.96-78.93-12.96-65.43 0-126.99 25.47-173.34 71.82-46.35 46.26-71.82 107.82-71.82 173.34 0 65.43 25.47 126.99 71.82 173.34 46.26 46.26 107.82 71.82 173.34 71.82 65.43 0 126.99-25.47 173.34-71.82 46.26-46.26 71.82-107.82 71.82-173.34 0-26.64-4.23-52.65-12.33-77.22l45.63-45.63 9.72 23.85c5.04 15.75 22.68 28.71 39.33 28.71h92.52c16.56 0 30.15 13.59 30.15 30.15v84.33c-0.27 16.56-13.86 30.15-30.42 30.15M696.77 285.27c-9.63 9.45-14.13 17.1-8.73 32.31 28.35 79.92 2.43 162-67.23 210.69-43.92 30.69-92.97 39.51-147.06 23.4 20.25-23.76 42.93-43.56 64.35-64.71 41.94-41.58 42.48-93.06 2.52-132.39-38.7-38.16-91.08-36.9-131.22 3.69-21.15 21.24-41.49 43.29-62.19 64.98-2.52-1.44-4.95-2.97-7.47-4.41-11.97-65.25 2.88-123.66 51.93-170.46 52.2-49.86 114.75-63.9 183.24-40.86 17.55 5.85 26.82 2.79 38.61-9.27 51.12-51.84 143.64-139.77 195.66-190.71 25.2-24.66 56.07-25.38 80.91-3.87 30.78 26.73 32.4 62.1 2.88 91.62-51.39 51.39-144.18 139.05-196.2 189.99m150.21-259.74c-15.84 0-28.62 12.78-28.62 28.62s12.78 28.62 28.62 28.62 28.62-12.78 28.62-28.62c0-15.75-12.78-28.62-28.62-28.62m0 0"  horiz-adv-x="1024" />

    
    <glyph glyph-name="xianshigou" unicode="&#58944;" d="M249.380571 755.346286C172.251429 755.346286 109.714286 690.907429 109.714286 611.547429c0-35.474286 12.946286-67.474286 33.572571-92.525715 43.373714 87.04 114.285714 156.854857 201.106286 197.376a136.667429 136.667429 0 0 1-95.012572 38.948572zM679.606857 716.397714a136.667429 136.667429 0 0 0 95.012572 38.948572c77.165714 0 139.666286-64.438857 139.666285-143.798857 0-35.474286-12.946286-67.474286-33.572571-92.525715-43.337143 87.04-114.285714 156.854857-201.106286 197.376M508.050286 233.325714l-130.011429-82.212571a22.454857 22.454857 0 0 0-12.032-3.437714 22.016 22.016 0 0 0-17.993143 9.033142 19.748571 19.748571 0 0 0 5.997715 28.342858l127.561142 80.713142c-2.852571 13.641143 0 28.233143 10.422858 39.533715 3.510857 3.84 7.826286 6.436571 12.214857 8.96V532.370286c0 11.264 9.691429 20.406857 21.613714 20.406857 11.995429 0 21.613714-9.142857 21.613714-20.406857v-214.601143a45.056 45.056 0 0 0 19.456-73.801143c-14.994286-16.384-39.131429-19.712-58.88-10.605714z m35.181714 524.653715h81.078857a31.085714 31.085714 0 0 1 30.72 31.451428c0 17.334857-13.750857 33.426286-30.72 33.426286h-224.914286c-17.005714 0-30.756571-16.091429-30.756571-33.462857 0-17.334857 13.750857-31.414857 30.72-31.414857h81.737143V699.245714c-189.001143-17.481143-337.846857-179.346286-337.846857-377.051428C143.250286 113.993143 308.297143-54.857143 512-54.857143c203.629714 0 368.749714 168.850286 368.749714 377.051429 0 197.851429-148.333714 359.753143-337.846857 375.515428l0.329143 60.269715z"  horiz-adv-x="1024" />

    
    <glyph glyph-name="daima" unicode="&#59068;" d="M457.24414062 109.95703125c4.39453125-1.31835938 8.17382813-1.93359375 11.51367188-1.93359375 6.59179688 0 11.07421875 2.63671875 14.4140625 7.99804688l0.17578125 0.26367187 106.171875 357.01171875 0.17578125 0.26367188c2.4609375 4.30664063 3.1640625 9.31640625 1.84570313 14.06249999-1.31835938 4.83398438-4.39453125 8.7890625-8.78906251 11.25000001-7.82226563 4.48242188-23.203125-5.44921875-24.96093749-6.59179688l-0.70312501-0.52734375-106.08398437-356.39648438-0.17578125-0.26367187c-2.98828125-5.18554688-3.60351563-12.3046875-1.49414063-17.66601562 1.14257813-2.63671875 3.42773438-6.15234375 7.91015626-7.47070313z m209.61914063 83.84765625c0-5.00976563 1.93359375-9.66796875 5.53710938-13.18359375 3.69140625-3.60351563 8.52539063-5.44921875 13.44726562-5.44921875 4.921875 0 9.84375 1.84570313 13.62304688 5.625L826.82421875 284.68359375c3.42773438 3.42773438 5.2734375 8.4375 5.00976563 14.0625 0.26367188 5.44921875-1.58203125 10.45898438-5.36132813 14.15039063L699.64648438 416.43164063c-7.3828125 7.29492188-19.95117188 7.3828125-27.24609376 0.26367187-3.60351563-3.515625-5.53710938-8.17382813-5.53710937-13.18359375 0-5.00976563 1.93359375-9.66796875 5.71289062-13.359375l112.14843751-91.49414063-112.67578125-91.93359374c-3.33984375-3.25195313-5.18554688-7.99804688-5.18554688-12.91992188z m-334.86328125-12.83203125c3.95507813-3.8671875 8.87695313-5.80078125 13.88671875-5.80078125 4.83398438 0 9.58007813 1.84570313 13.359375 5.53710938 3.60351563 3.515625 5.53710938 8.17382813 5.53710938 13.18359374 0 5.00976563-2.02148438 9.66796875-5.71289063 13.35937501l-112.1484375 91.40624999 112.58789063 91.93359375c3.33984375 3.33984375 5.2734375 7.99804688 5.27343749 12.91992188 0 5.00976563-2.02148438 9.66796875-5.625 13.18359375-3.60351563 3.515625-8.34960938 5.44921875-13.44726562 5.44921875-5.09765625 0-9.84375-1.93359375-13.27148438-5.2734375L204.82226562 312.6328125c-3.42773438-3.42773438-5.2734375-8.4375-5.00976562-14.0625-0.26367188-5.44921875 1.58203125-10.45898438 5.36132813-14.15039063L332 180.97265625zM814.25585938 779.68359375H217.390625c-53.52539063 0-97.11914063-43.50585938-97.11914063-97.11914063v-596.86523437c0-53.52539063 43.50585938-97.03125 97.11914063-97.03125h596.86523438c53.52539063 0 97.11914063 43.50585938 97.11914062 97.03125V682.65234375c-0.08789063 53.52539063-43.59375 97.03125-97.11914062 97.03125zM164.65625 585.53320313h702.33398438V86.05078125c0-29.26757813-23.46679688-53.0859375-52.20703125-53.0859375H216.86328125c-28.828125 0-52.20703125 23.81835938-52.20703125 53.0859375V585.53320313z m52.20703125 149.76562499h597.83203125c28.828125 0 52.20703125-21.62109375 52.20703125-48.07617187v-57.21679687h-702.24609375V687.22265625c0 26.45507813 23.46679688 48.07617188 52.20703125 48.07617188z"  horiz-adv-x="1024" />

    
    <glyph glyph-name="yunpan" unicode="&#59441;" d="M437.76 182.784v-158.068364h-194.56v0.279273a255.348364 255.348364 0 0 0 2.280727 510.23127299 255.394909 255.394909 0 0 0 499.339637 33.55927301l6.98181799 0.09309a272.19781799 272.19781799 0 1 0-11.35709099-544.162909h-132.468364v158.068364h172.823273l-257.954909 257.908364-257.908364-257.908364h172.823273z"  horiz-adv-x="1024" />

    
    <glyph glyph-name="liulan" unicode="&#58957;" d="M512 733.65C273.05 733.65 62 533.85 62 384s211.05-349.65 450-349.65 450 200.25 450 349.65-211.05 349.65-450 349.65z m0-648.45c-209.25 0-403.2 185.4-403.2 298.8 0 113.4 193.95 298.8 403.2 298.8 209.25 0 403.2-185.4 403.2-298.8 0-113.4-193.95-298.8-403.2-298.8z m2.7 455.4h-5.4c-86.4 0-156.6-70.2-157.05-156.6 0-86.4 70.2-156.6 157.05-156.6h5.4c86.4 0 156.6 70.2 157.05 156.6 0 86.4-70.2 156.6-157.05 156.6z m0.9-264.15h-7.2c-59.4 0-107.55 48.15-108 107.55 0 59.4 48.6 107.55 108 107.55h7.2c59.4 0 107.55-48.15 108-107.55-0.45-59.4-48.6-107.55-108-107.55z"  horiz-adv-x="1024" />

    
    <glyph glyph-name="wangzhan" unicode="&#59017;" d="M166.90625 452.8125c50.25 171.5625 160.3125 293.90625 361.59375 311.34375 13.875 1.21875 33.28125 0.09375 49.125 3.09375 13.59375 2.625 30.28125 12.46875 45.9375 18.9375 63.75 26.0625 204.65625 71.90625 275.8125 15.75 61.6875-48.9375 50.34375-167.8125 12.28125-245.34375 30.46875-61.3125 52.96875-146.625 39.84375-242.15625-178.78125-7.3125-387.09375-0.9375-560.8125-3.1875 5.8125-92.25 63.9375-162.9375 150.1875-172.96875 84.28125-9.75 142.5 37.6875 180.84375 91.21875h214.5C880.34375 69.84375 738.6875-53.90625 519.3125-37.875c-49.875 3.65625-88.78125 18.1875-131.8125 34.6875-71.90625-39.1875-230.90625-97.40625-294.1875-15.75-48.09375 62.0625-17.15625 174.84375 9.1875 248.4375 53.34375 149.0625 154.96875 296.71875 254.34375 380.625 0.5625 2.625 3.09375 3.1875 3.09375 6.28125-78.46875-39.9375-131.4375-106.21875-193.03125-163.59375zM920.75 685.59375c-2.90625 107.0625-141.46875 96.5625-214.5 53.4375 81.65625-32.53125 141.28125-87.75 190.03125-154.03125 10.5 33.5625 25.59375 61.5 24.46875 100.59375zM390.59375 424.59375h340.125c-9.84375 218.71875-329.4375 201-340.125 0z m-251.25-383.8125c17.0625-96.84375 153.09375-68.625 214.5-25.21875-80.71875 45.1875-130.96875 121.40625-171.65625 207.65625-18.84375-46.59375-54.09375-118.5-42.84375-182.4375z m0 0"  horiz-adv-x="1024" />

    
    <glyph glyph-name="erweima" unicode="&#58926;" d="M62.996776 411.938306l423.162696 0L486.159472 835.099978 62.996776 835.099978 62.996776 411.938306zM168.788218 729.30956l211.580836 0 0-211.580836L168.788218 517.728724 168.788218 729.30956zM539.055193 835.099978l0-423.162696 423.162696 0L962.217888 835.099978 539.055193 835.099978zM856.426447 517.728724L644.845611 517.728724 644.845611 729.30956l211.580836 0L856.426447 517.728724zM221.682915 570.623421l105.790418 0L327.473333 676.414863 221.682915 676.414863 221.682915 570.623421zM62.996776-64.12011099999995l423.162696 0L486.159472 359.04258500000003 62.996776 359.04258500000003 62.996776-64.12011099999995zM168.788218 253.252167l211.580836 0 0-211.580836L168.788218 41.67133100000001 168.788218 253.252167zM803.531749 676.414863L697.740308 676.414863l0-105.790418 105.790418 0L803.530726 676.414863zM539.055193-64.12011099999995l105.790418 0L644.845611 41.67030799999998 539.055193 41.67030799999998 539.055193-64.12011099999995zM644.845611 253.252167l0-211.580836 105.790418 0L750.636029 253.252167 644.845611 253.252167zM856.426447 41.67030799999998L750.636029 41.67030799999998 750.636029-64.12011099999995l211.580836 0L962.216865 147.46174900000005 856.426447 147.46174900000005 856.426447 41.67030799999998zM856.426447 253.252167l105.790418 0L962.216865 359.04258500000003 856.426447 359.04258500000003 856.426447 253.252167zM539.055193 359.04258500000003l0-105.790418 105.790418 0L644.845611 359.04258500000003 539.055193 359.04258500000003zM221.682915 94.56602799999996l105.790418 0L327.473333 200.356446 221.682915 200.356446 221.682915 94.56602799999996z"  horiz-adv-x="1024" />

    
    <glyph glyph-name="dianhua6" unicode="&#58969;" d="M445.43740625 320.71875c-84.375 84.375-164.53125 181.40625-126.5625 219.375 54.84375 54.84375 101.25 88.59375 4.21875 206.71875C230.28115625 864.9375 166.99990625 772.125 112.15615625 721.5 53.09365625 662.4375 107.93740625 434.625 335.74990625 206.8125c223.59375-223.59375 451.40625-282.65625 514.6875-219.375 54.84375 54.84375 143.4375 118.125 25.3125 215.15625-122.34375 97.03125-156.09375 50.625-206.71875-4.21875-42.1875-42.1875-139.21875 37.96875-223.59375 122.34375z m0 0"  horiz-adv-x="1025" />

    
    <glyph glyph-name="kucun" unicode="&#58927;" d="M456 380.8c-4.8 0-8 1.6-11.2 3.2L72 596.8c-11.2 6.4-16 20.8-9.6 32s20.8 16 32 9.6L467.2 424c11.2-6.4 16-20.8 9.6-32-3.2-8-11.2-11.2-20.8-11.2zM457.6 380.8c-8 0-16 4.8-20.8 12.8-6.4 11.2-1.6 25.6 9.6 32l385.6 216c11.2 6.4 25.6 1.6 32-9.6s1.6-25.6-9.6-32L468.8 384c-3.2-3.2-8-3.2-11.2-3.2zM841.6 596.8c-3.2 0-8 1.6-11.2 3.2L448 792c-11.2 6.4-16 20.8-11.2 32 6.4 11.2 20.8 16 32 11.2l382.4-192c11.2-6.4 16-20.8 11.2-32-3.2-9.6-11.2-14.4-20.8-14.4zM89.6 598.4c-8 0-17.6 4.8-20.8 12.8-6.4 11.2-1.6 25.6 11.2 32L448 833.6c11.2 6.4 25.6 1.6 32-11.2s1.6-25.6-11.2-32l-368-188.8c-3.2-1.6-6.4-3.2-11.2-3.2z m369.6-665.6c-4.8 0-8 1.6-12.8 3.2L76.8 161.6c-11.2 6.4-14.4 22.4-8 33.6 6.4 11.2 22.4 14.4 33.6 8L472-22.4c11.2-6.4 14.4-22.4 8-33.6-4.8-8-12.8-11.2-20.8-11.2zM465.6-67.2c-8 0-16 4.8-20.8 12.8-6.4 11.2-1.6 25.6 9.6 32l129.6 72c11.2 6.4 25.6 1.6 32-9.6 6.4-11.2 1.6-25.6-9.6-32l-129.6-72c-3.2-3.2-8-3.2-11.2-3.2z m377.6 548.8c-12.8 0-24 11.2-24 24V616c0 12.8 11.2 24 24 24s24-11.2 24-24v-110.4c0-12.8-11.2-24-24-24zM465.6-67.2c-12.8 0-24 11.2-24 24V400c0 12.8 11.2 24 24 24s24-11.2 24-24v-443.2c0-12.8-11.2-24-24-24zM83.2 163.2c-12.8 0-24 11.2-24 24V604.8c0 12.8 11.2 24 24 24s24-11.2 24-24v-417.6c0-12.8-11.2-24-24-24zM374.4 288c-4.8 0-8 1.6-12.8 3.2l-179.2 104c-11.2 6.4-16 20.8-8 33.6 6.4 11.2 20.8 16 33.6 8l179.2-104c11.2-6.4 16-20.8 8-33.6-4.8-8-12.8-11.2-20.8-11.2z m438.4-241.6c-11.2 0-20.8 4.8-27.2 11.2-8 8-22.4 19.2-30.4 19.2s-24-11.2-30.4-19.2c-6.4-8-17.6-11.2-27.2-11.2-4.8 0-9.6 1.6-14.4 3.2h-1.6l-48 27.2H632c-12.8 9.6-19.2 27.2-11.2 43.2 1.6 1.6 3.2 8 3.2 14.4 0 20.8-16 36.8-36.8 36.8h-1.6c-14.4 0-25.6 11.2-28.8 28.8 0 0-4.8 22.4-4.8 40s4.8 40 4.8 40c3.2 16 14.4 28.8 28.8 28.8h1.6c20.8 0 36.8 16 36.8 36.8 0 4.8-3.2 11.2-3.2 14.4-6.4 14.4-1.6 33.6 12.8 43.2l1.6 1.6 49.6 27.2h1.6c4.8 1.6 9.6 3.2 14.4 3.2 9.6 0 20.8-4.8 27.2-11.2 8-8 22.4-17.6 30.4-17.6s22.4 9.6 30.4 17.6c6.4 6.4 17.6 11.2 27.2 11.2 4.8 0 9.6-1.6 14.4-3.2h1.6l48-27.2h1.6c12.8-9.6 19.2-27.2 11.2-43.2-1.6-1.6-3.2-8-3.2-14.4 0-20.8 16-36.8 36.8-36.8h1.6c14.4 0 25.6-11.2 28.8-28.8 0 0 4.8-22.4 4.8-40s-4.8-40-4.8-40c-3.2-17.6-14.4-28.8-28.8-28.8h-1.6c-20.8 0-36.8-16-36.8-36.8 0-4.8 3.2-11.2 3.2-14.4 6.4-14.4 1.6-33.6-12.8-43.2l-1.6-1.6-49.6-27.2h-1.6c-4.8-1.6-9.6-3.2-14.4-3.2z m-59.2 80c16 0 32-6.4 48-17.6 4.8-3.2 9.6-8 12.8-9.6l28.8 16c-1.6 6.4-3.2 14.4-3.2 22.4 0 41.6 30.4 76.8 70.4 83.2 1.6 6.4 1.6 14.4 1.6 20.8s-1.6 14.4-1.6 20.8c-40 6.4-70.4 41.6-70.4 84.8 0 8 1.6 16 3.2 22.4l-28.8 16c-3.2-3.2-8-6.4-12.8-9.6-16-11.2-32-17.6-46.4-17.6-14.4 0-30.4 6.4-46.4 17.6-4.8 3.2-9.6 6.4-12.8 9.6l-30.4-16c1.6-6.4 3.2-14.4 3.2-22.4 0-41.6-30.4-76.8-70.4-84.8-1.6-6.4-1.6-16-1.6-20.8 0-6.4 1.6-14.4 1.6-20.8 40-6.4 70.4-41.6 70.4-83.2 0-8-1.6-16-3.2-22.4l27.2-14.4c3.2 3.2 8 6.4 12.8 9.6 17.6 9.6 33.6 16 48 16z m0 35.2c-43.2 0-80 35.2-80 80 0 43.2 35.2 80 80 80 43.2 0 80-35.2 80-80s-36.8-80-80-80z m0 110.4c-17.6 0-30.4-14.4-30.4-30.4s14.4-30.4 30.4-30.4S784 224 784 240s-12.8 32-30.4 32z"  horiz-adv-x="1024" />

    
    <glyph glyph-name="pintuan2" unicode="&#58970;" d="M782 374.49375V541.5a112.5 112.5 0 0 1-112.5 112.5H502.49375a108 108 0 1 1-160.9875 0H174.5a112.5 112.5 0 0 1-112.5-112.5v-167.00625a108 108 0 1 0 0-160.9875V46.5a112.5 112.5 0 0 1 112.5-112.5h495a112.5 112.5 0 0 1 112.5 112.5v167.00625a108 108 0 1 1 0 160.9875z"  horiz-adv-x="1024" />

    
    <glyph glyph-name="icon-test" unicode="&#58905;" d="M424.584 625.153a35.292 26.216 90 1 1 52.432 0 35.292 26.216 90 1 1-52.432 0ZM584.039 654.944c-15.153 1.112-28.864-17.442-30.625-41.442a6.796 6.796 0 1 1 13.557-0.995c0.881 12 7.736 21.277 15.313 20.721 7.576-0.556 13.004-10.735 12.124-22.734a6.958 6.958 0 1 1 13.88-1.018c1.76 23.999-9.096 44.356-24.249 45.468zM836.084 423.427C853.01 739.647 662.235 832 512.153 832l-0.307-0.119V832c-150.082 0-340.856-92.353-323.93-408.573-82.63-96.292-99.522-253.773-80.528-270.731 18.993-16.958 59.969-8.361 98.327 31.921 13.328-33.706 28.005-73.623 41.878-86.764-24.134-12.358-77.226-38.199-62.751-89.263 18.881-66.608 128.165-72.56 155.524-72.572 112.936-0.951 130.407 36.294 171.602 36.294v0.032l0.064-0.032c41.195 0 58.665-37.245 171.602-36.294 27.359 0.012 136.643 5.964 155.524 72.572 14.475 51.064-38.617 76.905-62.751 89.263 13.873 13.141 28.55 53.058 41.878 86.764 38.358-40.282 79.334-48.879 98.327-31.921 18.994 16.958 2.102 174.439-80.528 270.731zM648.921 625.08c0-48.861-25.248-88.471-56.393-88.471s-56.393 39.61-56.393 88.471 25.248 88.471 56.393 88.471c31.144 0 56.393-39.61 56.393-88.471z m-217.448 88.471c31.145 0 56.393-39.61 56.393-88.471s-25.248-88.471-56.393-88.471-56.393 39.61-56.393 88.471 25.248 88.471 56.393 88.471z m80.424-203.477v0.059l0.205-0.059c59.922-0.037 181.952-32.735 181.952-65.435 0-19.23-45.134-40.629-61.206-38.952 9.573 11.004 13.436 23.486 16.073 33.598-8.779-9.22-64.718-62.221-136.839-62.221l-0.165 0.005v0.066-0.066l-8.197 0.231c-68.129 3.762-120.199 53.117-128.642 61.985 2.636-10.112 6.5-22.594 16.073-33.598-16.072-1.677-61.206 19.722-61.206 38.952 0 32.7 122.03 65.398 181.952 65.435z m0.136-521.874l-0.065-0.012v0.012C304.396-11.778 220.3 203.506 271.88 341.989c112.658-96.877 215.084-90.173 240.055-90.172v0.064l0.129-0.064c24.971-0.001 127.397-6.705 240.055 90.172C803.7 203.506 719.604-11.778 512.033-11.8z"  horiz-adv-x="1024" />

    
    <glyph glyph-name="gengduo" unicode="&#58982;" d="M912.82291667 368.53125a22.5 22.5 0 0 1 6.1875 15.6375 22.33125 22.33125 0 0 1-6.1875 15.58125m0 0L511.25416667 818.98125c-17.60625 18.45-47.025 17.325-64.63125-1.06875a48.4875 48.4875 0 0 1-0.05625-66.4875l351.39375-367.3125-351.39375-367.25625a48.4875 48.4875 0 0 1 0.05625-66.4875c17.60625-18.39375 46.96875-19.51875 64.575-1.06875l401.56875 419.2875M601.25416667 368.25a22.55625 22.55625 0 0 1 0 31.21875m0 0L199.68541667 818.75625c-17.60625 18.39375-47.025 17.26875-64.575-1.125a48.4875 48.4875 0 0 1-0.1125-66.4875l351.39375-367.3125-351.39375-367.25625a48.4875 48.4875 0 0 1 0.05625-66.4875c17.60625-18.39375 46.96875-19.51875 64.63125-1.06875L601.25416667 368.25"  horiz-adv-x="1024" />

    
    <glyph glyph-name="kaifazhongxin" unicode="&#58886;" d="M407.08936906 154.96680469a15.48678 15.48678 0 0 1 7.45126875-1.90335c5.15746311 0 10.17198375 2.54227594 12.93874688 7.09247156l149.27383218 245.42656125c4.12328438 6.77492625 1.67790281 15.43977188-5.46061687 19.35583595-7.14235781 3.91126781-16.27632469 1.58580469-20.39481281-5.18912157L401.623955 174.32264155999997c-4.12232531-6.77492625-1.67310563-15.43977188 5.46541406-19.35583687zM953.43126969 796.56540094H70.91505594c-10.14895875 0-18.38113781-8.23217812-18.38113782-18.385935v-790.58750156c0-10.15375594 8.23217812-18.38593406 18.38113782-18.38593407h882.51621375c10.15375594 0 18.38593406 8.23217812 18.38593406 18.38593407V778.17946594c0 10.15375594-8.23217812 18.38593406-18.38593406 18.385935z m-27.57842157-781.39501406H98.4934775V566.74362h827.35937062v-551.57323313z m0 597.53758874H98.4934775V750.60104438h827.35937062v-137.89306876z m-315.22403811-415.62860343c2.70728437-4.73439001 7.83692625-7.42344656 13.14596624-7.42344657 2.39453625 0 4.83512156 0.55162594 7.09726875 1.70956032l149.27383219 76.77386718c4.8120975 2.47320281 7.81390219 7.25364188 7.81390218 12.456195 0 5.198715-2.99700844 9.98299125-7.81390218 12.45619499L630.872045 369.82656938c-7.25268281 3.71843906-16.31278031 1.172325-20.24227594-5.71388532-3.92565844-6.880455-1.23180469-15.48102375 6.01224375-19.21289437l125.0550525-64.30424156-125.05601156-64.30711969c-7.24404844-3.7280325-9.93790219-12.32764219-6.01224374-19.20905625z m-412.38792095 71.06094093l149.27383219-76.77386718a15.464715 15.464715 0 0 1 7.09726781-1.70956125c5.29944656 0 10.43388563 2.68905657 13.13637375 7.42344656 3.92565844 6.880455 1.23660188 15.48102375-6.01704094 19.20809719L236.68490375 280.59746719l125.04641813 64.30424156c7.24884563 3.73186969 9.94173937 12.33723562 6.01704093 19.21289344-3.92949562 6.88525219-12.98959312 9.43232531-20.23364156 5.71388625l-149.27383219-76.77482719c-4.82169094-2.47320281-7.81869937-7.25747906-7.81869937-12.45619406 0-5.20351219 2.99700844-9.98395125 7.81869937-12.45715406z m107.09698781 390.53201907c12.67204875 0 22.97738156 10.31012999 22.97738157 22.9821778s-10.30533281 22.98217781-22.97738157 22.98217876-22.986975-10.31012999-22.986975-22.98217876 10.31492625-22.98217781 22.986975-22.9821778z m137.88443438 0c12.67204875 0 22.986975 10.31012999 22.986975 22.9821778s-10.31396719 22.98217781-22.986975 22.98217876-22.97738156-10.31012999-22.97738156-22.98217876 10.30437375-22.98217781 22.97738156-22.9821778z m-275.78229937 0c12.67204875 0 22.98217781 10.31012999 22.98217781 22.9821778s-10.31012999 22.98217781-22.98217782 22.98217876-22.98217781-10.31012999-22.98217875-22.98217876 10.31012999-22.98217781 22.98217875-22.9821778z"  horiz-adv-x="1024" />

    
    <glyph glyph-name="cuo" unicode="&#59057;" d="M623.56405977 384.74875166l281.53078242 281.53078242L960.5024958 721.6871877 848.18968349 834l-56.90515781-55.40765362L511.25124834 497.06156396 231.21797011 778.59234638 174.3128123 834 62 721.6871877l55.40765362-55.40765362 281.53078242-281.53078242L117.40765362 104.71547432 62 47.81031651000001l112.3128123-112.31281231 56.90515781 56.90515781L511.25124834 272.43594023l280.03327734-280.03327822 56.90515781-56.90515781 112.31281231 112.31281231-55.40765361 56.90515781z"  horiz-adv-x="1024" />

    
    <glyph glyph-name="dianhua" unicode="&#58946;" d="M994.83741885 533.76c-115.2 38.88-69.12 112.32-138.24 141.12-117.12 48.48-229.92 47.04-229.92 47.04s-112.32 0.96-229.92-47.04c-69.12-28.32-23.04-102.24-138.24-141.12C137.07741885 492.96 73.71741885 552.96 74.67741885 626.88c0.96 49.44 30.72 105.6 91.68 142.08C322.83741885 862.08 626.67741885 863.04 626.67741885 863.04s303.84-0.96 459.84-94.08c60.48-36 90.72-91.68 91.68-141.12 2.4-74.4-60.96-134.88-183.36-94.08zM442.83741885 580.8h92.16v-47.04h183.84V580.8h92.16v-47.04l276-329.28v-188.16c0-51.84-41.28-94.08-92.16-94.08H258.51741885c-50.88 0-92.16 42.24-92.16 94.08v188.16l276 329.28V580.8zM626.67741885 16.799999999999955c101.76 0 183.84 84 183.84 188.16 0 103.68-82.56 188.16-183.84 188.16s-183.84-84-183.84-188.16c0-104.16 82.08-188.16 183.84-188.16z m0 282.24c50.88 0 92.16-42.24 92.16-94.08s-41.28-94.08-92.16-94.08-92.16 42.24-92.16 94.08 41.28 94.08 92.16 94.08zM626.67741885 299.52c50.88 0 92.16-42.24 92.16-94.08s-41.28-94.08-92.16-94.08-92.16 42.24-92.16 94.08 41.28 94.08 92.16 94.08z"  horiz-adv-x="1243" />

    
    <glyph glyph-name="shejiao" unicode="&#58883;" d="M204.94091797 389.29453125c0 52.63417969 42.66035156 95.29365234 95.29453125 95.29365234s95.29365234-42.65947266 95.29365234-95.29365234c0-52.63330078-42.65947266-95.29628906-95.29365234-95.29628906S204.94091797 336.66210937000005 204.94091797 389.29453125z m518.82363281-95.29628906c52.63417969 0 95.29453125 42.66210938 95.29453125 95.29628906S776.39873047 484.58818359 723.76367188 484.58818359 628.47089844 441.92871094 628.47089844 389.29453125c0-52.63330078 42.65947266-95.29628906 95.29365234-95.29628906z m42.35273438-31.76103516h-84.70546875c-58.47978516 0-105.88183594-47.40644531-105.88183594-105.88271484v-60.18486328a21.17900391 21.17900391 0 0 0-8.55527344-17.00332032l-50.67597656-34.33007812a10.57324219 10.57324219 0 0 0-12.14296875 0.19248047l-47.11816406 34.13671875a21.17373047 21.17373047 0 0 0-8.56582032 17.00419922V156.35449218999997c0 58.47626953-47.40380859 105.88183594-105.88183593 105.88183593h-84.70634766c-58.47802734 0-105.88183594-47.40556641-105.88183594-105.88183593v-137.9663086c0-14.4421875 11.71054688-26.15097656 26.15273438-26.15097656h0.63544922c14.4421875 0 26.15273437 11.70878906 26.15273437 26.15097656V-66h190.58818359V55.81728515999998l52.94091797-37.21728516 40.0772461-26.64931641a42.36767578 42.36767578 0 0 1 46.90722656 0l40.07460937 26.64931641 52.94091797 37.21728516V-66h190.5881836v84.38642578c0-14.4421875 11.71142578-26.15097656 26.15361328-26.15097656h0.63544922c14.44130859 0 26.15273437 11.70878906 26.15273437 26.15097656V156.35273438000002c-0.00175781 58.47714844-47.4046875 105.88447266-105.88447265 105.88447265z m-42.35273438 423.52734375c0-81.86835937-99.55107422-148.23544922-222.35273437-148.23544922-13.12910156 0-25.93037109 0.90966797-38.43457032 2.36074219-31.6265625-34.10507812-93.91816406-39.41894531-93.91816406-39.41894531 10.80878906 19.89492188 17.87167969 39.09023438 20.24384766 57.43037109-65.87929687 25.72910156-110.24384766 73.29023437-110.24384766 127.86328125C279.05908203 767.63203125 378.60839844 834 501.41181641 834 624.21347656 834 723.76367188 767.63203125 723.76367188 685.76455078z m-280.58818359 0c0 17.54560547-14.21894531 31.76455078-31.76455078 31.76455078s-31.76455078-14.22070313-31.76455078-31.76367187 14.21894531-31.76542969 31.76367187-31.76542969 31.76542969 14.21894531 31.76542969 31.76455078z m95.29453125 0c0 17.54560547-14.22070313 31.76455078-31.76542969 31.76455078-17.54472656 0-31.76367188-14.21894531-31.76367187-31.76367187s14.21894531-31.76542969 31.76367187-31.76542969c17.54384766 0 31.76542969 14.21894531 31.76542969 31.76455078z m95.29365234 0c0 17.54560547-14.22070313 31.76455078-31.76455078 31.76455078s-31.76455078-14.22070313-31.76455078-31.76367187 14.21894531-31.76542969 31.76367187-31.76542969 31.76542969 14.21894531 31.76542969 31.76455078z"  horiz-adv-x="1024" />

    
    <glyph glyph-name="baohu" unicode="&#58955;" d="M925.696 656.702c0 8.192-4.096 16.384-12.288 16.38399999l-393.216 155.64800001c-4.096 0-8.192 0-16.384 0L110.592 677.18199999C106.496 673.08599999 98.304 664.894 98.304 656.702c0-4.096-4.096-512 405.504-708.608 4.096 0 4.096 0 8.192 0s4.096 0 8.192 0C929.792 144.702 925.696 652.606 925.696 656.702zM512-10.946000000000026c-344.064 167.936-368.64 577.536-372.736 655.36L512 791.87l372.736-147.456C880.64 566.58999999 856.064 161.08599999 512-10.946000000000026zM344.064 419.13399999c-8.192 8.192-20.48 8.192-28.672 0-8.192-8.192-8.192-20.48 0-28.67199999l155.648-155.64800001c4.096-4.096 8.192-4.096 12.288-4.096 0 0 0 0 0 0 4.096 0 12.288 4.096 12.288 4.096l282.624 294.912c8.192 8.192 8.192 20.48 0 28.67200001-8.192 8.192-20.48 8.192-28.672 0l-270.336-278.528L344.064 419.13399999z"  horiz-adv-x="1024" />

    
    <glyph glyph-name="kaifazheicon" unicode="&#58961;" d="M481.693538 422.163692c20.736 0 38.498462-12.544 46.217847-30.444307l5.848615 10.141538-51.160615 29.538462-5.612308-9.708308c1.595077 0.137846 3.111385 0.472615 4.706461 0.472615zM481.693538 481.732923a109.883077 109.883077 0 1 1 0-219.766154 109.883077 109.883077 0 0 1 0 219.766154z m0-160.216615a50.333538 50.333538 0 1 0 0.039385 100.667077 50.333538 50.333538 0 0 0-0.039385-100.667077zM293.494154 743.68a50.156308 50.156308 0 0 0-44.996923-40.192l184.694154-318.976a50.077538 50.077538 0 0 0 46.572307 37.454769L293.494154 743.68zM244.164923 863.271385a109.883077 109.883077 0 1 1 0-219.766154 109.883077 109.883077 0 0 1 0 219.766154z m0-160.216616a50.333538 50.333538 0 1 0 0.039385 100.667077 50.333538 50.333538 0 0 0-0.039385-100.667077zM865.201231 364.366769a49.506462 49.506462 0 0 0-4.273231 20.145231c0 15.793231 7.424 29.715692 18.806154 38.931692H476.868923v-1.772307c1.614769 0.157538 3.190154 0.492308 4.844308 0.492307a50.313846 50.313846 0 0 0 50.313846-50.313846c0-2.56-0.393846-5.021538-0.768-7.483077h333.942154zM911.222154 494.395077a109.902769 109.902769 0 1 1 0.039384-219.805539 109.902769 109.902769 0 0 1-0.039384 219.805539z m0-160.196923a50.333538 50.333538 0 1 0 0.039384 100.588308 50.333538 50.333538 0 0 0-0.039384-100.588308zM268.780308 56.260923c21.405538 0 39.581538-13.430154 46.848-32.275692l172.110769 298.121846c-2.008615-0.236308-3.977846-0.590769-6.045539-0.590769a50.195692 50.195692 0 0 0-45.587692 29.321846l-170.24-294.852923c0.984615 0.059077 1.910154 0.275692 2.914462 0.275692zM261.828923 55.571692L71.148308 385.851077l185.344 318.916923a49.92 49.92 0 0 0-12.327385-1.693538 50.136615 50.136615 0 0 0-42.870154 24.300307L2.875077 385.949538l216.162461-374.409846a49.939692 49.939692 0 0 0 42.791385 44.032zM734.503385 808.369231l-486.951385-1.398154-1.988923-3.406769a50.254769 50.254769 0 0 0 48.896-50.176c0-1.831385-0.354462-3.584-0.531692-5.356308l406.528 1.142154 185.540923-321.378462a49.821538 49.821538 0 0 0 25.225846 7.010462 50.313846 50.313846 0 1 0 0-100.627692 49.860923 49.860923 0 0 0-29.046154 9.353846l-184.162462-316.849231L315.076923 25.6c2.56-6.045538 3.997538-12.701538 3.997539-19.652923 0-16.068923-7.699692-30.267077-19.475693-39.502769l432.482462 1.260307 244.696615 421.021539L734.503385 808.369231zM268.780308 115.849846a109.883077 109.883077 0 1 1 0-219.766154 109.883077 109.883077 0 0 1 0 219.766154z m0-160.196923a50.333538 50.333538 0 1 0 0.039384 100.667077 50.333538 50.333538 0 0 0-0.039384-100.667077z"  horiz-adv-x="1024" />

    
    <glyph glyph-name="fenxi" unicode="&#58897;" d="M936.86746075-6.404424690000042h-856.98433581c-17.34681283 0-31.32782617 13.98101333-31.32782618 31.32782617v20.84206617c0 17.34681283 13.98101333 31.32782617 31.32782618 31.32782618h856.98433581c17.34681283 0 31.32782617-13.98101333 31.32782616-31.32782618v-20.84206617c0-17.34681283-13.98101333-31.32782617-31.32782616-31.32782617z m1.81235356 171.65577482l-8.67340641-5.82542222c-12.03920592-8.02613728-28.22093431-4.78979161-36.2470716 7.24941432l-92.81839408 139.16286419c-8.02613728 12.03920592-4.78979161 28.22093431 7.24941431 36.24707161l8.67340644 5.82542223c12.03920592 8.02613728 28.22093431 4.78979161 36.2470716-7.24941433l92.81839407-139.1628642c7.89668347-12.03920592 4.66033778-28.22093431-7.24941433-36.2470716z m-132.0429037 188.35531851c-76.7661195-51.26371555-180.58808889-30.5511032-231.85180444 46.34447012-51.26371555 76.7661195-30.5511032 180.58808889 46.34447013 231.85180445 76.7661195 51.26371555 180.58808889 30.5511032 231.85180445-46.34447012 51.26371555-76.7661195 30.5511032-180.58808889-46.34447014-231.85180445z m11.52139063 208.80902322c-38.44778667 57.60695309-116.2495368 73.14141235-173.98594371 34.69362568s-73.14141235-116.2495368-34.69362568-173.98594371 116.2495368-73.14141235 173.9859437-34.69362568c57.60695309 38.44778667 73.14141235 116.2495368 34.69362569 173.98594371z m-95.53692444 16.44063605c-54.88842272-0.25890765-99.29108543-44.40266272-99.29108544-99.29108544 1.94180741-37.28270222 22.3955121-31.84564148 20.84206617-57.47749926-0.77672297-12.94538272-41.81358617 7.37886815-41.81358617 67.96325926s49.19245431 109.77684543 109.77684544 109.77684544c48.28627753 0.64726914 38.31833283-18.38244347 36.63543307-20.84206618-2.07126124-4.01306864-15.14609778-0.64726914-26.14967307-0.12945382zM678.99543703 284.08996347000004v-133.72580347c0-17.34681283-11.65084445-31.32782617-26.14967308-31.32782617h-86.99297185c-14.36937482 0-26.14967309 13.98101333-26.14967308 31.32782617V377.16726518999997c0.12945383-0.12945383 0.12945383-0.25890765 0.12945381-0.38836149 32.49291061-58.25422222 85.05116445-90.48822518 139.1628642-92.68894023zM434.84551902 119.03633382999999h-88.1580563c-14.62828247 0-26.40858075 13.98101333-26.40858075 31.32782617V610.18415408c0 17.34681283 11.78029827 31.32782617 26.40858075 31.32782618h88.1580563c14.62828247 0 26.40858075-13.98101333 26.40858073-31.32782618v-459.81999408c0-17.34681283-11.78029827-31.32782617-26.40858073-31.32782617z m-220.97768297 0h-86.86351802c-14.36937482 0-26.02021925 13.98101333-26.02021927 31.32782617V746.1106726c0 17.34681283 11.65084445 31.32782617 26.02021927 31.32782616h86.86351802c14.36937482 0 26.02021925-13.98101333 26.02021926-31.32782616v-595.7465126c0-17.34681283-11.65084445-31.32782617-26.02021926-31.32782617z"  horiz-adv-x="1024" />

    
    <glyph glyph-name="erweima2" unicode="&#58974;" d="M117.36826016 408.55515176l371.92033828-1e-8L489.28859844 780.47459004 117.36826016 780.47459004 117.36826016 408.55515176zM210.34901972 687.49473047l185.95971915 0-1e-8-185.95971914L210.34901972 501.53501133 210.34901972 687.49473047zM535.77897822 780.47459004l1e-8-371.92033828 371.92033828 0L907.69931562 780.47459004 535.77897822 780.47459004zM814.71855693 501.53501133L628.75883779 501.53501133 628.75883779 687.49473047l185.95971914 0L814.71855693 501.53501133zM256.83849951 548.02449112l92.97985957 0L349.81835908 641.00525068 256.83849951 641.00525068 256.83849951 548.02449112zM117.36826016-9.855566309999972l371.92033828 0L489.28859844 362.06477197000004 117.36826016 362.06477197000004 117.36826016-9.855566309999972zM210.34901972 269.0849124l185.95971915 0-1e-8-185.95971914L210.34901972 83.12519325999995 210.34901972 269.0849124zM768.22907627 641.00525068L675.24831758 641.00525068l0-92.97985956 92.97985956 0L768.22817715 641.00525068zM535.77897822-9.855566309999972l92.97985957 0L628.75883779 83.12429413999996 535.77897822 83.12429413999996 535.77897822-9.855566309999972zM628.75883779 269.0849124l0-185.95971914 92.97985958 0L721.73869737 269.0849124 628.75883779 269.0849124zM814.71855693 83.12429413999996L721.73869737 83.12429413999996 721.73869737-9.855566309999972l185.95971914 0L907.69841651 176.10505282999998 814.71855693 176.10505282999998 814.71855693 83.12429413999996zM814.71855693 269.0849124l92.97985958 0L907.69841651 362.06477197000004 814.71855693 362.06477197000004 814.71855693 269.0849124zM535.77897822 362.06477197000004l1e-8-92.97985957 92.97985956 0L628.75883779 362.06477197000004 535.77897822 362.06477197000004zM256.83849951 129.61467304999996l92.97985957 0L349.81835908 222.59453262 256.83849951 222.59453262 256.83849951 129.61467304999996z"  horiz-adv-x="1024" />

    
    </font>
</defs>
</svg>
